<?xml version="1.0" encoding="UTF-8"?><svg id="Layer_1" xmlns="http://www.w3.org/2000/svg" viewBox="0 0 388.45 175.28"><path d="M150.8,77.56c.29-.07,.5-.12,.47-.12-.17,.01-.32,.06-.47,.12Z"/><path d="M388.31,69.47c-.19-.28-.36-.57-.46-.91-.04-.12-.14-.23-.23-.33-.11-.13-.25-.23-.34-.37-.26-.41-.61-.71-1-.96-.34-.22-.63-.49-.9-.78-.11-.12-.24-.24-.35-.36-.14-.15-.31-.25-.51-.29-.54-.14-1.08-.27-1.61-.41-.29-.07-.58-.06-.85,.11-.28,.18-.6,.26-.93,.3-.26,.03-.52,.06-.78,.07-.3,.02-.58,.07-.83,.27-.22,.17-.47,.21-.74,.22-.16,0-.33,.01-.49,.02-.24,.01-.43,.09-.6,.28-.35,.37-.76,.65-1.26,.74-.3,.05-.55,.18-.77,.4-.19,.2-.4,.37-.67,.38-.39,.02-.66,.27-.94,.5-.13,.1-.24,.23-.36,.34-.31,.28-.66,.44-1.07,.44-.13,0-.26,0-.39,0-.24,0-.46,.07-.58,.31-.19,.38-.5,.64-.86,.81-.5,.23-.84,.63-1.17,1.06-.08,.1-.14,.23-.22,.34-.47,.62-1,1.17-1.73,1.45-.18,.07-.35,.18-.51,.29-.33,.22-.61,.51-1.02,.58-.14,.03-.29,.16-.4,.28-.18,.19-.34,.41-.53,.64-.13,.05-.28,.11-.44,.15-.45,.13-.7,.48-.9,.88-.04,.09-.06,.2-.08,.3-.06,.26-.24,.4-.46,.49-.12,.06-.25,.09-.37,.13-.38,.12-.73,.29-.88,.73-.03,.09-.12,.16-.19,.23-.17,.16-.36,.3-.51,.48-.2,.26-.44,.39-.74,.46-.21,.04-.35,.16-.44,.36-.03,.06-.06,.12-.1,.18-.09,.12-.21,.17-.34,.14-.12-.03-.24-.1-.37-.14-.18-.06-.33,.07-.32,.27,.02,.2,.05,.4,.07,.6-.31,.25-.61,.44-.98,.45-.42,.01-.65,.23-.79,.64-.05,.16-.15,.33-.27,.42-.39,.28-.61,.7-.9,1.07-.18,.24-.37,.49-.6,.67-.29,.23-.52,.51-.77,.77-.37,.38-.7,.82-1.15,1.11-.28,.19-.52,.41-.71,.69-.1,.15-.25,.22-.41,.25-.1,.02-.2,0-.29,.04-.09,.03-.19,.09-.23,.17-.11,.21-.16,.45-.27,.66-.15,.26-.49,.16-.69,.35-.07,.07-.14,.14-.21,.21-.37,.38-.74,.77-1.12,1.15-.23,.24-.5,.42-.62,.77-.04,.11-.17,.21-.27,.28-.16,.11-.34,.2-.51,.3-.21,.11-.38,.25-.48,.49-.08,.21-.27,.28-.46,.35-.16,.06-.32,.14-.37,.3-.16,.51-.44,.91-.86,1.2-.36,.53-.86,.94-1.18,1.5-.14,.26-.34,.4-.61,.46-.44,.1-.73,.42-.96,.81-.1,.17-.2,.35-.3,.53-.21,.36-.47,.66-.9,.72-.09,.01-.19,.06-.26,.12-.57,.51-1.29,.78-1.87,1.29-.1,.09-.22,.14-.34,.2-.29,.15-.6,.27-.89,.43-.53,.28-.87,.7-.89,1.36,0,.14,0,.27-.01,.41-.01,.41,.11,.75,.45,.96,.31,.19,.47,.46,.54,.81,.03,.16,.08,.35,.18,.47,.41,.49,.77,1.02,1.3,1.38,.19,.13,.37,.28,.52,.46,.19,.23,.4,.31,.69,.25,.67-.13,1.34-.28,2.03-.18,.2,.03,.38-.08,.51-.25,.35-.42,.77-.72,1.22-1.01,.41-.27,.82-.55,1.21-.87,.32-.27,.64-.6,1.06-.71,.33-.09,.59-.28,.82-.53,.57-.61,1.17-1.19,1.72-1.82,.62-.7,1.21-1.43,2.03-1.89,.03-.02,.05-.04,.08-.06,.14-.1,.23-.24,.26-.42,.02-.07,.03-.13,.04-.2,.08-.54,.3-.9,.9-.84,.14,.01,.24-.09,.31-.21,.11-.2,.14-.46,.34-.61,.31-.24,.64-.47,.92-.75,.31-.3,.56-.66,.86-.96,.15-.14,.28-.28,.34-.48,.16-.52,.54-.85,.92-1.16,.26-.21,.53-.39,.75-.64,.16-.18,.33-.35,.55-.41,.45-.11,.74-.41,.97-.8,.19-.33,.44-.59,.75-.79,.14-.09,.24-.22,.31-.38,.32-.71,.83-1.21,1.49-1.54q1.17-.57,2.06-1.64c.04-.05,.09-.1,.13-.15,.12-.18,.28-.28,.48-.33,.31-.08,.53-.27,.65-.56,.15-.34,.39-.51,.75-.57,.51-.08,.89-.41,1.08-.92,.1-.26,.24-.49,.44-.66,.15-.13,.3-.26,.45-.4,.2-.19,.43-.31,.69-.35,.26-.04,.51-.08,.77-.14,.17-.04,.29-.15,.33-.33,.03-.1,.05-.2,.05-.3,0-.39,.19-.64,.47-.85,.19-.14,.38-.26,.56-.4,.73-.57,1.55-1,2.2-1.7,.09-.09,.23-.13,.35-.17,.16-.04,.32-.06,.48-.08,.31-.04,.56-.18,.72-.47,.12-.22,.28-.39,.5-.47,.41-.15,.73-.44,1.1-.65,.27-.15,.49-.34,.61-.63,.03-.06,.07-.12,.12-.16,.3-.19,.61-.43,.97-.44,.51-.01,.96-.17,1.37-.45,.03-.02,.06-.01,.09-.02,.11-.04,.28,.08,.3,.2,.07,.5-.05,.95-.26,1.39-.08,.15-.2,.28-.26,.43-.32,.79-2.59,8.51-2.99,9.25-.26,.48-.6,.89-.89,1.35-.14,.22-.39,.36-.58,.54-.24,.23-.45,.51-.73,.68-.33,.2-.69-.06-1.05-.07-.71-.03-.72-.15-1.32,.44-.12,.12-.27,.19-.39,.3-.19,.18-.4,.36-.54,.58-.49,.79-.84,1.62-.77,2.6,.03,.42,.11,.81,.34,1.17,.09,.14,.2,.28,.24,.44,.12,.44,.34,.82,.6,1.17,.12,.17,.2,.36,.21,.56,.02,.42,.27,.72,.56,.92,.28,.19,.49,.45,.75,.65,.23,.17,.36,.38,.44,.65,.03,.13,.22,.2,.33,.15,.15-.07,.31-.12,.44-.21,.34-.23,.57-.3,.91,.17,.04,.05,.1,.09,.15,.13,.18,.15,.47,.15,.63,0,.19-.18,.37-.38,.55-.56,.25-.03,.47-.06,.7-.08,.28-.03,.51-.16,.61-.44,.12-.34,.34-.56,.61-.78,.25-.21,.43-.53,.7-.71,.34-.22,.48-.52,.61-.88,.06-.15,.18-.29,.29-.41,.18-.2,.35-.4,.55-.59,.35-.32,.6-.72,.82-1.14,.19-.36,.37-.73,.57-1.07,.19-.32,.33-.67,.49-1,.16-.33,.4-.62,.59-.94,.12-.2,.2-.43,.32-.64,.1-.18,2.05-7.34,2.19-7.48,.17-.18,.27-.38,.3-.63,.04-.31,.13-.6,.35-.83,.21-.22,.35-.49,.43-.8,.05-.16,.1-.34,.19-.47,.22-.32,.31-.68,.4-1.04,.16-.63,.32-1.26,.54-1.87,.04-.09,.08-.2,.08-.3,0-.44,.2-.79,.43-1.12,.22-.31,.33-.66,.32-1.06,0-.27,0-.55,.02-.82,.04-.68-.03-1.38,.13-2.05,.05-.21,0-.41-.12-.59Z"/><path d="M340.03,59.91c-.08,.52,.02,1.03,.09,1.53,.03,.21,.16,.38,.34,.49,.12,.07,.23,.16,.35,.2,.39,.12,.78,.24,1.16,.41,.39,.17,.78,.09,1.14-.23,.73-.64,1.25-1.45,1.89-2.16,.07-.07,.08-.19,.13-.28,.05-.09,.09-.2,.17-.25,.31-.2,.46-.5,.62-.8,.18-.33,.4-.64,.69-.89,.1-.09,.2-.2,.24-.33,.17-.5,.53-.88,.86-1.27,.2-.24,.38-.49,.43-.81,.03-.21,.15-.38,.29-.53,.16-.18,.28-.39,.34-.63,.03-.13,.06-.29,.14-.38,.4-.44,.46-1.08,.88-1.5,.28-.62,.63-1.22,.63-1.94,0-.28,.06-.54,.19-.79,.15-.31,.3-.62,.44-.93,.07-.15,.13-.31,.19-.47,.15-.45,.39-.88,.38-1.37,0-.13,.07-.27,.14-.38,.18-.33,.17-.66,.05-1-.21-.65-.35-1.33-.86-1.84-.09-.09-.1-.25-.16-.37-.04-.09-.08-.19-.13-.28-.09-.17-.35-.26-.54-.18-.09,.04-.18,.1-.27,.15-.21,.11-.39,.06-.57-.08-.43-.34-.69-.85-1.15-1.17-.1-.07-.12-.24-.2-.36-.16-.24-.38-.39-.69-.37-.21,0-.41-.02-.61,0-.17,.02-.35,.06-.48,.15-.48,.32-.94,.67-1.43,1.02,.01,.22,.04,.42,.04,.62,0,.2,.02,.44-.06,.6-.16,.32-.17,.66-.24,.99-.11,.54-.31,1.05-.66,1.49-.22,.28-.4,.56-.29,.93,.02,.06,.01,.14-.01,.2-.27,.59-.15,1.31-.6,1.84-.07,.42-.24,.78-.61,1.04-.09,.07-.13,.24-.15,.37-.03,.32-.14,.58-.36,.83-.25,.29-.4,.63-.45,1.02-.02,.21-.14,.38-.31,.52-.1,.09-.18,.21-.26,.31-.12,.15-.12,.31-.06,.49,.02,.06,.02,.13,.03,.2-.04,.06-.07,.12-.11,.17-.26,.29-.44,.59-.45,1.01,0,.23-.11,.47-.22,.68-.17,.31-.26,.63-.27,.98,0,.31-.04,.62-.05,.93-.01,.59,.02,1.17,.29,1.71,.11,.23,.12,.46,.08,.7Z"/><path d="M18.21,67.18c.12,0,.19-.01,.25-.02,.09,0,.16-.16,.11-.23-.17-.26-.43-.33-.68-.18-.05,.03-.09,.1-.09,.16,0,.06,.04,.14,.08,.16,.12,.06,.25,.08,.32,.11Z"/><path d="M31.23,66.27c.07-.04,.12-.12,.16-.17-.03-.13-.15-.2-.24-.14-.05,.03-.09,.09-.11,.15-.02,.1,.09,.2,.18,.16Z"/><path d="M248.06,95.15h0Z"/><path d="M326.51,88.98c-.19-.12-.35-.28-.55-.37-.38-.18-.68-.45-.92-.79-.18-.25-.43-.37-.74-.34-.46,.05-.87-.08-1.26-.31-.14-.08-.27-.18-.42-.22-.29-.07-.52-.22-.69-.46-.1-.14-.26-.18-.42-.17-.19,.02-.37,.05-.55,.11-.18,.06-.33,.18-.51,.25-.15,.06-.31,.03-.45-.06-.05-.04-.09-.08-.14-.13-.37-.35-.79-.35-1.23-.18-.15,.06-.28,.15-.42,.21-.15,.06-.32,.09-.46,0-.37-.22-.79-.2-1.19-.26-.66-.11-1.32-.12-1.98,0-.34,.06-.69,.06-1.04,.03-.25-.02-.51-.02-.75,.01-.37,.06-.76,.11-1.1,.26-.35,.16-.65,.18-.99,.04-.15-.06-.32,0-.45,.09-.48,.34-1.03,.47-1.6,.51-.22,.01-.44,.04-.66,.09-.22,.04-.44,.08-.63,.19-.4,.23-.82,.31-1.26,.37-.44,.05-.86,.16-1.27,.34-.58,.26-1.21,.36-1.84,.38-.19,0-.38,0-.56,.05-.49,.13-.84,.56-1.37,.61-.11,.01-.2,.13-.3,.21-.03,.02-.04,.04-.07,.06-.27,.24-.59,.38-.95,.34-.4-.05-.73,.08-1.09,.25-.37,.18-.76,.29-1.11,.52-.27,.18-.6,.19-.91,.07-.09-.03-.17-.09-.26-.11-.24-.08-.45-.01-.56,.21-.14,.27-.3,.47-.6,.55-.26,.07-.45,.22-.59,.44-.26,.41-.65,.6-1.13,.57-.37-.02-.68,.08-.94,.35-.06,.07-.14,.13-.21,.19-.2,.16-.43,.14-.69-.04-.07-.05-.15-.11-.24-.17-.18,.18-.34,.38-.53,.52-.24,.17-.41,.39-.61,.59-.34,.34-.89,.23-1.09-.2-.16-.35-.27-.71-.21-1.1,.03-.2-.02-.37-.15-.53-.17-.2-.22-.44-.25-.7-.02-.28-.07-.56-.1-.85-.03-.26-.09-.49-.29-.68-.29-.27-.42-.63-.45-1.02-.04-.51-.2-.99-.34-1.48-.05-.18-.16-.34-.24-.51-.24-.5-.67-.92-.74-1.51,0-.06-.03-.13-.08-.17-.32-.28-.38-.72-.66-1.03-.29-.32-.42-.69-.4-1.13,0-.08-.06-.16-.09-.23-.09-.01-.15-.03-.21-.02-.27,.03-.49-.05-.69-.23-.21-.19-.45-.35-.69-.5-.35-.22-.69-.43-.93-.78-.15-.21-.38-.34-.63-.39-.51-.1-.94-.37-1.33-.69-.18-.14-.37-.25-.59-.27-.39-.04-.73-.17-1.01-.46-.14-.15-.34-.19-.52-.16-.39,.07-.75-.03-1.1-.2-.03-.01-.06-.02-.09-.03-.56-.27-1.15-.31-1.76-.26-.13,.01-.25,.02-.38,.03-.73,.06-1.45,.04-2.12-.29-.11,.05-.19,.09-.28,.12-.73,.32-1.48,.53-2.27,.61-.51,.05-.99,.2-1.46,.4-.2,.09-.4,.2-.6,.27-.24,.09-.46,.2-.64,.39-.23,.24-.53,.34-.86,.34-.2,0-.37,.05-.53,.17-.1,.08-.2,.18-.32,.2-.35,.07-.65,.2-.89,.48-.11,.13-.29,.09-.45,.08-.13-.01-.26,.02-.34,.12-.32,.36-.69,.64-1.16,.79-.13,.04-.18,.17-.22,.29-.03,.09-.03,.19-.06,.28-.03,.13-.08,.25-.22,.29-.28,.08-.5,.27-.73,.43-.26,.18-.54,.31-.82,.47-.22,.12-.44,.24-.66,.36-.33,.45-.78,.71-1.29,.9-.11,.04-.22,.13-.31,.21-.36,.37-.81,.6-1.24,.87-.19,.12-.37,.23-.51,.41-.18,.23-.4,.4-.68,.5-.08,.03-.17,.09-.23,.15-.32,.34-.65,.69-.95,1.05-.13,.15-.25,.28-.43,.35-.21,.07-.39,.2-.53,.38-.26,.31-.53,.63-.8,.93-.13,.14-.27,.27-.43,.36-.23,.12-.42,.26-.51,.53-.03,.08-.1,.18-.18,.21-.36,.17-.59,.46-.82,.76-.12,.16-.28,.27-.47,.3-.3,.04-.53,.15-.69,.43-.09,.16-.25,.31-.41,.38-.3,.14-.49,.38-.72,.6-.27,.27-.46,.6-.66,.92-.16,.25-.39,.38-.68,.43-.06,.15-.13,.31-.3,.33-.3,.03-.52,.19-.76,.35-.16,.11-.39-.01-.42-.22-.03-.15-.06-.32-.04-.47,.05-.41,.13-.81,.18-1.22,.04-.32,.14-.62,.33-.87,.16-.21,.23-.44,.24-.7,.01-.39,.15-.74,.42-1.03,.16-.17,.22-.37,.24-.6,.01-.16,.04-.31,.08-.47,.05-.22,.13-.43,.33-.56,.23-.15,.36-.35,.42-.61,.04-.19,.15-.34,.27-.49,.1-.12,.21-.26,.23-.4,.09-.46,.45-.84,.43-1.34,0-.11,.11-.22,.17-.33,.11-.19,.28-.36,.34-.56,.14-.5,.4-.92,.71-1.32,.18-.24,.32-.48,.27-.78-.08-.47,.26-.83,.3-1.28,.02-.26,.26-.42,.4-.63,.26-.36,.48-.74,.37-1.22-.04-.16,0-.32,.1-.45,.35-.46,.55-.98,.74-1.52,.08-.24,.18-.47,.13-.73-.06-.33,.02-.63,.21-.9,.21-.3,.29-.63,.24-.99-.03-.26,.04-.5,.15-.73,.16-.32,.19-.67,.13-1.02-.07-.43-.17-.87-.23-1.3-.04-.35-.21-.61-.51-.74-.33-.15-.57-.37-.8-.64-.31-.39-.62-.48-1.07-.18-.23,.15-.48,.15-.72,.04-.17-.08-.35-.16-.5-.26-.33-.22-.68-.3-1.08-.28-.19,.01-.39,0-.56-.06-.38-.14-.73-.13-1.11,0-.17,.06-.37,.04-.56,.07-.12,.02-.27,.04-.35,.11-.38,.34-.87,.51-1.19,.93-.11,.15-.27,.26-.46,.32-.3,.09-.59,.21-.87,.37-.27,.15-.57,.24-.85,.35-.11,.18-.19,.36-.31,.5-.13,.17-.27,.37-.45,.47-.4,.22-.68,.55-.94,.91-.14,.2-.35,.36-.52,.54-.2,.22-.44,.36-.74,.36-.24,0-.42,.1-.55,.3-.07,.1-.17,.18-.27,.26-.37,.28-.7,.64-1.21,.7-.16,.02-.27,.14-.38,.26-.17,.19-.33,.38-.44,.61-.05,.11-.14,.22-.24,.29-.3,.19-.55,.42-.77,.69-.12,.15-.28,.26-.46,.32-.27,.09-.42,.27-.47,.54-.04,.21-.16,.34-.38,.35-.24,0-.4,.11-.55,.31-.13,.17-.31,.31-.48,.44-.22,.16-.21,.45-.39,.64-.41,.44-.8,.89-1.19,1.35-.15,.17-.32,.3-.55,.35-.32,.07-.57,.26-.79,.49-.15,.16-.29,.34-.51,.41-.4,.14-.59,.44-.71,.82-.04,.15-.11,.3-.22,.41-.26,.29-.53,.57-.8,.85-.07,.02-.15,.03-.22,.04-.13,.02-.27,0-.41,0-.29,0-.54,.07-.69,.35-.08,.16-.21,.26-.36,.35-.21,.12-.4,.26-.59,.41-.27,.21-.55,.4-.8,.64-.25,.24-.51,.45-.8,.64-.11,.07-.21,.17-.3,.28-.14,.18-.31,.27-.53,.28-.32,.01-.6,.14-.86,.31-.4,.26-.86,.43-1.16,.84-.07,.1-.22,.17-.34,.22-.2,.08-.34,.22-.47,.38-.06,.08-.13,.18-.22,.22-.53,.24-.95,.68-1.52,.85-.2,.06-.38,.15-.56,.26-.27,.16-.54,.29-.86,.34-.21,.04-.42,.14-.5,.33-.22,.48-.67,.67-1.07,.92-.38,.24-.77,.44-1.18,.63-.24,.12-.51,.2-.77,.29-.1,.03-.3-.11-.32-.22-.08-.44,0-.82,.4-1.08,.09-.06,.17-.12,.27-.15,.23-.1,.4-.26,.52-.48,.2-.37,.47-.68,.89-.81,.21-.07,.35-.22,.43-.41,.1-.22,.21-.44,.41-.58,.45-.33,.83-.71,1.06-1.23,.03-.06,.09-.1,.13-.16,.35-.5,.83-.9,1.09-1.48,.15-.34,.5-.56,.78-.8,.19-.16,.37-.33,.43-.57,.11-.46,.41-.78,.77-1.06,.36-.27,.68-.57,.8-1.04,.03-.09,.09-.19,.16-.26,.31-.3,.44-.69,.55-1.09,.05-.2,.11-.4,.28-.54,.31-.25,.48-.57,.53-.97,.02-.17,.09-.33,.16-.49,.1-.22,.18-.45,.17-.69-.02-.39,.09-.75,.19-1.11,.15-.53,.22-1.08,.19-1.63,0-.18-.04-.35-.19-.46-.34-.25-.59-.55-.81-.92-.24-.41-.54-.79-.84-1.16-.37-.46-.8-.87-1.47-.78-.03,0-.07,0-.1,0-.14-.02-.28-.07-.35-.19-.22-.4-.6-.65-.86-1.02-.12-.16-.38-.21-.56-.08-.3,.22-.61,.27-.97,.17-.31-.09-.6-.03-.89,.15-.36,.22-.75,.34-1.17,.35-.2,0-.4,.08-.61,.09-.31,.02-.61,.05-.84,.3-.08,.09-.25,.11-.38,.12-.32,.02-.59,.18-.88,.27-.35,.1-.6,.29-.83,.56-.08,.09-.23,.14-.36,.17-.18,.05-.32,.14-.39,.3-.12,.31-.37,.48-.65,.63-.31,.15-.58,.35-.84,.58-.28,.25-.61,.45-.84,.75-.64,.29-1.11,.79-1.52,1.34-.02,.03-.05,.06-.08,.07-.43,.21-.65,.61-.89,.98-.25,.38-.7,.53-.96,.92-.28,.42-.68,.76-1.03,1.14-.37,.1-.44,.37-.44,.71,0,.24-.06,.48-.11,.71-.04,.21-.14,.38-.33,.5-.3,.19-.54,.42-.63,.78-.02,.09-.09,.19-.16,.26-.36,.37-.7,.75-.87,1.26-.4,.4-.62,.9-.74,1.45-.04,.16-.15,.31-.22,.46-.25,.6-.6,1.16-.73,1.81-.03,.16-.12,.33-.22,.46-.31,.41-.55,.86-.77,1.32-.13,.28-.27,.55-.32,.86-.05,.41-.11,.82-.17,1.23-.05,.37-.08,.75-.13,1.12-.03,.24-.11,.46-.31,.63l.05,.11s-.05,.06-.07,.09c-.13,.22-.32,.35-.58,.39-.43,.05-.77,.28-1.06,.59-.14,.15-.3,.28-.45,.43-.18,.18-.39,.29-.64,.3-.59,.03-1.09,.4-1.69,.42-.12,0-.22,.14-.34,.21-.51,.28-1,.59-1.63,.5-.23-.03-.48,.04-.72,.05-.48,.03-.96,.06-1.44,.07-.17,0-.34-.02-.51-.05-.32-.06-.6-.24-.69-.55-.1-.35-.31-.61-.49-.9-.14-.23-.31-.46-.41-.71-.22-.58-.48-1.14-.81-1.66-.11-.18-.19-.37-.2-.58-.02-.39-.15-.73-.28-1.09-.09-.26-.15-.53-.2-.79-.1-.5-.13-1.03-.28-1.51-.2-.64-.27-1.27-.18-1.93,.07-.46-.03-1.51-.19-1.93-.13-.36-.18-.73-.17-1.11,.01-.48,.04-.96,.14-1.43,.07-.33,.1-.68,.14-1.02,.03-.21,.03-.41-.06-.61-.28-.58-.28-1.19-.23-1.82,.02-.23,.1-.48,0-.63-.46-.43-.87-.8-1.25-1.19-.15-.15-.32-.27-.53-.28-.38-.03-.64-.22-.81-.55-.02-.03-.04-.05-.07-.08-.1-.11-.35-.16-.48-.09-.06,.03-.12,.07-.17,.11-.41,.26-.42,.27-.76-.1-.28-.31-.63-.53-.97-.76-.18-.12-.38-.15-.59-.05-.09,.04-.18,.1-.27,.14-.21,.09-.41,.09-.56-.1-.22-.28-.48-.21-.74-.09-.22,.1-.4,.27-.53,.48-.12,.19-.3,.3-.51,.31-.48,.02-.84,.24-1.17,.57-.17,.18-.4,.26-.65,.28-.1,0-.21,.02-.31,.02-.18,.01-.33,.08-.46,.2-.22,.21-.51,.38-.68,.63-.36,.52-.87,.87-1.32,1.28-.21,.18-.39,.38-.55,.61-.06,.08-.15,.14-.24,.19-.25,.16-.59,0-.64-.27-.09-.45,0-.89,.05-1.33,.09-.68,.21-1.36,.29-2.04,.04-.41,.08-.81,.25-1.2,.08-.18,.12-.4,.13-.6,.03-.62,.04-1.24,.05-1.86,0-.28-.03-.54-.16-.8-.24-.51-.36-1.03-.26-1.6,0-.06-.03-.13-.05-.23-.49-.43-1.04-.85-1.42-1.43-.05-.08-.14-.15-.23-.2-.53-.27-.93-.7-1.34-1.12-.16-.04-.33-.08-.5-.12-.24-.05-.46-.14-.63-.32-.23-.25-.53-.3-.85-.28-.34,.02-.69,.13-1.02,.07-.36-.06-.69-.29-1.05-.39-.42-.12-.75-.33-1.01-.67-.07-.09-.21-.12-.27-.04-.25,.31-.56,.35-.92,.31-.44-.04-.9,.06-1.29-.23-.07-.05-.2-.04-.3-.04-.31-.01-.62-.03-.93-.03-.52,0-1.03,.03-1.53,.19-.57,.18-1.13,.27-1.72,.18-.21-.03-.41,.01-.58,.14-.43,.32-.96,.33-1.45,.49-.09,.03-.21,.02-.31,0-.42-.09-.82,0-1.21,.15-.26,.1-.52,.17-.8,.14-.25-.03-.47,.05-.66,.22-.16,.15-.37,.17-.57,.21-.12,.03-.23,.05-.35,.07h0c-.14,0-.27,.03-.39,.08-.26,.06-.51,.12-.74,.23-.24,.1,.1,.04,.48-.05h0c-.22,.25-.5,.34-.81,.42-.33,.08-.68,.14-.99,.27-.44,.18-.86,.42-1.36,.41-.06,0-.14,.03-.19,.07-.28,.24-.62,.27-.96,.3-.21,.01-.4,.11-.56,.25-.22,.2-.47,.26-.76,.21-.21-.03-.41,.01-.55,.2-.15,.2-.35,.32-.58,.41-.42,.16-.81,.36-1.16,.65-.12,.1-.31,.14-.48,.15-.17,.02-.34-.02-.51-.03-.18-.01-.34,.03-.45,.19-.24,.36-.58,.55-.99,.69-.42,.15-.82,.35-1.28,.35-.21,0-.38,.14-.56,.25-.38,.24-.79,.26-1.17,.03-.28-.17-.56-.23-.88-.22-.27,.01-.55,.01-.82,0-.13,0-.28-.03-.4-.1-.45-.26-.87-.57-1.07-1.08-.1-.25-.23-.52-.25-.78-.03-.59-.33-1.02-.72-1.43-.27-.28-.54-.51-.92-.61-.23-.06-.44-.19-.63-.28-.06,0-.1,0-.13,.02-.34,.14-.66,.16-.96-.1-.24-.2-.53-.33-.82-.41-.16-.05-.34-.1-.5-.07-.38,.06-.75,.03-1.13,.02-.21,0-.42,.05-.57,.2-.25,.27-.56,.38-.92,.41-.06,0-.13,.04-.23,.08-.03,.1-.08,.22-.12,.35-.06,.17-.16,.31-.31,.4-.35,.21-.72,.4-1.06,.62-.31,.21-.57,.52-.9,.68-.4,.19-.59,.58-.91,.81-.34,.24-.68,.46-.95,.78-.04,.05-.12,.07-.18,.09-.5,.17-.86,.54-1.21,.92-.09,.1-.16,.24-.27,.3-.42,.24-.77,.58-1.14,.87-.14,.11-.29,.17-.48,.17-.13,0-.28,0-.41,.04-.2,.06-.37,.17-.44,.39-.02,.06-.04,.13-.05,.2-.03,.38-.25,.63-.56,.81-.15,.09-.29,.19-.45,.24-.33,.09-.53,.28-.66,.59-.05,.12-.16,.23-.27,.29-.22,.12-.38,.29-.51,.5-.14,.2-.33,.34-.53,.48l-.05,.45c-.32,.22-.62,.47-.86,.78-.33,.12-.62,.22-.91,.32-.27,.09-.49,.22-.66,.46-.26,.37-.63,.65-1,.87-.35,.21-.76,.31-.96,.71-.04,.07-.17,.1-.26,.15-.15,.07-.34,.1-.47,.2-.27,.22-.56,.39-.87,.54-.11,.06-.19,.19-.26,.3-.08,.16-.17,.3-.35,.36-.34,.11-.59,.34-.81,.61-.2,.23-.4,.47-.6,.71-.21,.25-.45,.42-.79,.42-.23,0-.38,.13-.51,.3-.06,.09-.13,.16-.19,.25-.17,.27-.38,.48-.7,.57-.12,.04-.24,.14-.31,.25-.14,.2-.32,.36-.54,.46-.19,.09-.31,.25-.45,.4-.49,.52-.96,1.07-1.66,1.35-.12,.05-.23,.15-.3,.26-.17,.28-.4,.47-.67,.63-.3,.17-.59,.36-.78,.66-.1,.15-.25,.23-.42,.27-.31,.08-.59,.2-.8,.44-.15,.17-.33,.24-.53,.29-.38,.1-.68,.32-.83,.71-.09,.23-.25,.41-.46,.54-.15,.09-.29,.19-.42,.3-.58,.5-1.27,.8-1.96,1.12-.3,.02-.47,.22-.67,.43-.34,.34-.71,.64-1.22,.7-.19,.02-.29,.17-.36,.33-.08,.19-.17,.37-.35,.5-.67,.47-1.36,.93-2.07,1.33-.15,.09-.3,.17-.46,.22-.26,.09-.54,.12-.78,.24-.27,.13-.53,.32-.77,.51-.25,.2-.56,.25-.83,.4-.25,.14-.5,.22-.79,.18-.33-.04-.62,.04-.84,.29-.28,.32-.64,.37-1.03,.33-.44-.04-.88-.09-1.33,0-.34,.07-.63-.11-.77-.4-.2-.41-.49-.74-.78-1.07-.21-.24-.33-.52-.33-.84,0-.31-.04-.61-.18-.9-.06-.12-.09-.26-.09-.4,0-.31-.1-.61-.19-.91-.06-.23-.1-.47-.14-.71-.12-.68-.05-1.37-.08-2.06,0-.21,.05-.41,.16-.59,.14-.24,.2-.51,.24-.78,.06-.48,.13-.95,.18-1.43,.04-.41,.12-.82,.26-1.2,.32-.84,.52-1.71,.56-2.61,.02-.38,.11-.74,.31-1.08,.1-.18,.15-.38,.21-.58,.21-.76,.39-1.53,.73-2.25,.09-.18,.14-.4,.14-.6,0-.37,.12-.67,.38-.92,.21-.2,.29-.45,.18-.75-.1-.28-.07-.54,.17-.75,.16-.15,.23-.34,.27-.54,.14-.6,.29-1.2,.42-1.81,.07-.3,.15-.6,.36-.84,.14-.16,.26-.33,.28-.54,.05-.55,.39-1.03,.43-1.59,.01-.15,.15-.3,.24-.44,.07-.12,.19-.23,.2-.35,0-.59,.21-1.15,.26-1.73,.07-.72,.16-1.44,.21-2.15,.04-.49,.14-.95,.41-1.41-.19-.37-.14-.78-.12-1.2,.02-.29-.03-.54-.27-.74-.24-.21-.38-.48-.43-.8-.02-.13-.08-.27-.17-.37-.31-.37-.62-.73-.95-1.08-.1-.1-.25-.13-.39-.07-.19,.08-.37,.19-.56,.27-.17,.07-.34,.03-.49-.07-.14-.1-.27-.21-.33-.38-.07-.19-.04-.42-.25-.59-.17,.03-.37,.09-.57,.11-.24,.02-.48,.02-.72,.03-.14,0-.28,.02-.4,.07-.3,.13-.6,.12-.91,.04-.22-.06-.4,.03-.55,.19-.28,.3-.55,.61-.82,.92-.12,.13-.25,.22-.42,.29-1.02,.42-1.33,.64-2.27,1.52-.07,.07-.16,.12-.24,.19-.48,.38-.89,.85-1.45,1.15-.12,.06-.21,.17-.29,.28-.36,.5-.97,.76-1.3,1.3-.38,.18-.56,.6-.92,.8-.4,.22-.71,.53-.91,.95-.06,.12-.17,.21-.27,.31-.75,.8-1.59,1.51-2.24,2.41-.06,.08-.14,.16-.22,.21-.25,.15-.39,.38-.51,.63-.06,.13-.18,.2-.33,.22-.1,.01-.2,.03-.3,.05-.23,.04-.38,.18-.42,.4-.1,.69-.53,1.18-.99,1.64-.37,.37-.79,.65-1.32,.75-.07,.01-.14,.03-.19,.07-.08,.06-.15,.14-.19,.23-.04,.09-.05,.2-.05,.3,0,.34-.13,.59-.42,.77-.2,.13-.34,.33-.38,.58-.18,.09-.33,.2-.35,.44-.01,.13-.05,.3-.14,.38-.39,.34-.59,.85-1.03,1.14-.21,.14-.33,.35-.43,.57-.17,.35-.4,.63-.74,.84-.42,.26-.73,.61-.96,1.05-.08,.15-.18,.3-.31,.4-.2,.16-.33,.35-.37,.6-.06,.33-.25,.56-.51,.74-.38,.25-.69,.56-.89,.97-.15,.29-.4,.46-.69,.58-.17,.07-.29,.18-.35,.35-.27,.81-.94,1.33-1.48,1.94-.02,.02-.06,.04-.09,.06-.16,.11-.46-.02-.49-.21-.02-.13-.05-.27-.04-.41,.05-.65,.12-1.3,.18-1.95,.03-.27,.09-.54,.23-.78,.28-.53,.41-1.09,.36-1.69-.02-.28,.05-.54,.19-.79,.23-.39,.34-.82,.4-1.27,.05-.37,.11-.75,.29-1.09,.16-.28,.22-.57,.2-.89-.03-.46,.13-.89,.39-1.25,.2-.29,.34-.58,.39-.93,.03-.2,.11-.4,.21-.58,.14-.28,.23-.57,.27-.88,.06-.37,.12-.75,.16-1.12,.03-.28,.13-.53,.34-.73,.39-.38,.55-.86,.62-1.38,.02-.17,.04-.34,.06-.51,.04-.31,.12-.6,.35-.84,.11-.12,.18-.29,.22-.45,.07-.27,.16-.52,.31-.76,.11-.17,.2-.37,.24-.56,.11-.56,.4-1.03,.78-1.43,.31-.32,.47-.66,.5-1.09,0-.14,.03-.27,.04-.41,.02-.32,.13-.59,.34-.84,.28-.32,.66-1.05,.71-1.35,.06-.35,.22-.63,.42-.92,.22-.3,.32-.69,.55-.99,.47-.63,.81-1.34,1.27-1.98,.08-.11,.18-.22,.22-.35,.14-.49,.44-.83,.86-1.12,.22-.15,.39-.38,.59-.57,.39-.39,.82-.73,1.36-.89,.34-.1,.61-.3,.87-.52,.44-.38,.92-.71,1.41-1.02,.67-.42,1.29-.91,1.88-1.43,.19-.17,.38-.28,.63-.29,.41,0,.72-.2,.96-.52,.21-.28,.46-.52,.77-.67,.63-.3,1.14-.75,1.68-1.17,.46-.36,.93-.7,1.45-.97,.18-.09,.37-.19,.52-.32,.61-.55,1.31-.99,1.93-1.52,.45-.38,.95-.67,1.51-.85h0c.11-.26,.32-.43,.59-.53,.2-.07,.34-.2,.47-.38,.36-.51,.82-.92,1.41-1.16,.13-.05,.24-.14,.36-.2,.42-.24,.8-.52,1.07-.94,.17-.26,.38-.48,.63-.67,.27-.21,.52-.45,.78-.67,.21-.18,.43-.36,.53-.62,.14-.36,.42-.53,.78-.6,.35-.08,.62-.27,.86-.53,.23-.25,.5-.46,.71-.75,.23-.31,.64-.39,.93-.64,.1-.09,.21-.18,.31-.27,.33-.3,.63-.65,1-.88,.51-.32,.88-.76,1.2-1.25,.15-.24,.34-.45,.58-.57,.45-.22,.77-.54,1.03-.96,.16-.25,.42-.45,.64-.66,.15-.14,.3-.28,.38-.48,.18-.48,.55-.79,.99-1,.29-.14,.52-.31,.69-.59,.09-.14,.23-.25,.36-.36,.3-.28,.58-.61,.92-.81,.39-.23,.52-.63,.78-.94,.07-.08,.14-.16,.23-.2,.2-.1,.33-.24,.36-.47,.04-.32,.2-.57,.47-.76,.17-.12,.3-.28,.45-.43,.56-.55,1.06-1.16,1.75-1.58,.12-.07,.17-.22,.15-.36-.02-.13-.07-.27-.09-.4-.01-.11,.04-.22,.15-.24,.43-.1,.71-.38,.98-.7,.25-.29,.52-.55,.8-.8,.18-.17,.31-.36,.35-.61,.04-.25,.2-.43,.39-.59,.29-.25,.56-.5,.67-.89,.03-.12,.15-.22,.25-.32,.17-.16,.35-.32,.55-.47,.31-.23,.57-.5,.73-.85,.24-.54,.64-.97,.96-1.46,.14-.2,.3-.36,.49-.52,.26-.22,.48-.48,.71-.74,.06-.07,.12-.18,.13-.27,.03-.4,.16-.73,.49-.98,.1-.08,.16-.22,.21-.35,.18-.45,.57-.77,.74-1.23,.04-.11,.19-.19,.29-.28,.41-.37,.81-.74,.9-1.33,.03-.18,.14-.31,.27-.42,.1-.09,.19-.2,.3-.28,.28-.2,.34-.5,.4-.81,.07-.41,.29-.7,.71-.78,.31-.06,.38-.26,.35-.53-.02-.26,.04-.48,.25-.64,.22-.17,.4-.37,.49-.65,.04-.13,.11-.26,.19-.36,.18-.21,.29-.46,.37-.73,.12-.45,.37-.81,.76-1.07,.17-.12,.31-.26,.4-.46,.07-.15,.16-.31,.28-.42,.18-.18,.27-.39,.31-.64,.05-.38,.18-.72,.4-1.04,.23-.33,.27-.78,.61-1.06,.02-.02,.03-.06,.04-.09,.08-.51,.2-1.01,.48-1.45,.03-.05,.04-.13,.04-.2,.05-.58,.1-1.16,.14-1.75,.01-.21-.08-.4-.23-.55-.22-.22-.46-.42-.66-.65-.22-.26-.49-.38-.82-.35-.34,.03-.6-.09-.82-.33-.48-.5-1.04-.9-1.64-1.24-.58-.33-.96-.28-1.49,.18-.03,.02-.05,.05-.07,.07-.23,.22-.5,.35-.83,.35-.14,0-.28-.01-.41,.02-.16,.04-.36,.07-.47,.18-.44,.42-.98,.62-1.54,.79-.19,.06-.39,.17-.53,.31-.43,.41-.92,.71-1.47,.93-.23,.09-.4,.26-.52,.48-.05,.09-.11,.17-.18,.27-.2,.04-.4,.09-.6,.1-.22,.02-.4,.09-.52,.28-.1,.15-.2,.28-.37,.35-.2,.08-.35,.22-.47,.38-.34,.44-.78,.77-1.22,1.11-.38,.29-.79,.54-1.09,.93-.16,.21-.4,.37-.61,.55-.17,.15-.36,.18-.57,.05-.03-.02-.06-.04-.09-.05-.19-.06-.3-.02-.29,.14,.02,.27-.07,.47-.26,.64-.34,.29-.68,.57-1.02,.86-.26,.23-.55,.43-.75,.7-.36,.47-.75,.89-1.28,1.16-.06,.03-.12,.08-.15,.14-.12,.26-.37,.39-.58,.57-.6,.51-1.24,.97-1.75,1.57-.16,.19-.33,.35-.55,.45-.29,.14-.52,.36-.64,.65-.17,.38-.47,.58-.83,.71-.16,.06-.34,.07-.45,.22-.35,.76-.31,.65-.86,.95-.18,.1-.38,.2-.49,.36-.27,.37-.62,.64-.96,.93-.24,.2-.45,.42-.55,.73-.06,.21-.21,.34-.38,.48-.4,.32-.82,.62-1.06,1.1-.08,.16-.23,.25-.4,.3-.16,.05-.35,.09-.47,.19-.29,.22-.61,.3-.95,.35-.07,0-.13,.05-.19,.07-.1,.04-.23,.23-.21,.33,.03,.17,.07,.33,.11,.5,.03,.14,.03,.27-.07,.39-.07,.08-.15,.15-.2,.23-.34,.62-.82,1.08-1.44,1.41-.4,.21-.73,.5-.94,.92-.11,.21-.26,.42-.44,.56-.4,.31-.65,.69-.8,1.16-.09,.28-.32,.42-.62,.47-.16,.03-.36,.08-.47,.19-.24,.24-.49,.5-.62,.8-.17,.39-.4,.71-.73,.97-.24,.2-.46,.41-.68,.63-.22,.21-.45,.41-.54,.73-.03,.12-.17,.21-.27,.29-.1,.09-.25,.14-.32,.25-.37,.5-.85,.9-1.23,1.38-.38,.48-.68,1.02-1.08,1.49-.04,.05-.05,.13-.08,.19-.16,.44-.47,.76-.87,.98-.66,.36-1.13,.88-1.45,1.55-.11,.24-.25,.4-.5,.47-.32,.1-.49,.34-.61,.65-.14,.35-.31,.69-.46,1-.19,.1-.33,.2-.49,.27-.31,.13-.51,.34-.57,.68-.02,.1-.05,.2-.08,.3-.07,.28-.22,.52-.47,.65-.29,.16-.48,.38-.57,.69-.11,.37-.37,.65-.62,.93-.25,.29-.51,.57-.69,.89-.17,.31-.38,.57-.62,.82-.48,.49-.96,.97-1.28,1.6-.12,.24-.36,.42-.44,.69-.07,.24-.23,.41-.41,.58-.3,.28-.57,.59-.92,.82-.17,.11-.3,.28-.44,.43-.12,.13-.17,.29-.14,.47,.06,.31-.08,.53-.35,.68-.19,.11-.32,.26-.35,.48-.05,.35-.17,.66-.45,.9-.1,.09-.15,.23-.23,.34q-.48,.69-1.3,.95c-.14,.58-.44,1.11-.8,1.62-.12,.16-.16,.38-.25,.56-.06,.12-.11,.27-.21,.34-.34,.21-.54,.5-.68,.87-.19,.48-.56,.77-1.07,.87-.1,.02-.21,.02-.3,.07-.12,.06-.24,.13-.33,.23-.16,.18-.27,.39-.43,.57-.15,.18-.51,.18-.65,.01-.13-.16-.25-.33-.38-.49-.24-.29-.47-.34-.82-.18-.18,.09-.29,.36-.2,.52,.05,.09,.11,.17,.18,.25,.28,.3,.21,.57-.09,.77-.23,.15-.47,.3-.65,.49-.33,.37-.73,.61-1.19,.78-.58,.21-1.12,.52-1.6,.91-.17,.14-.35,.23-.56,.25-.43,.03-.79,.2-1.14,.44-.14,.1-.3,.17-.45,.25-.3,.16-.64,.26-.9,.48-.39,.04-.68,.27-.98,.51-.09,.07-.27,.08-.39,.05-.28-.06-.46,.06-.6,.28-.02,.03-.04,.05-.07,.08-.11,.1-.24,.13-.38,.08-.1-.03-.18-.09-.27-.14-.24-.11-.29-.07-.29,.2,0,.29-.07,.38-.32,.41-.07,0-.14,.01-.21,0-.33-.03-.61,.08-.85,.31-.05,.05-.1,.09-.15,.14-.16,.15-.36,.2-.57,.19-.34-.03-.68-.07-1.03-.1-.36-.02-.66,.16-.95,.34-.19,.12-.22,.33-.26,.54,0,.03-.01,.07-.02,.1-.05,.14-.14,.24-.29,.25-.24,.02-.48,.04-.72,.03-.4-.01-.74,.1-1.04,.37-.28,.26-.57,.5-.85,.75-.14,.12-.29,.18-.47,.17-.1,0-.2-.03-.31-.04-.63-.06-1.23,.02-1.74,.44-.13,.11-.29,.19-.43,.28-.15,.09-.32,.12-.49,.07-.24-.08-.46-.06-.69,.08-.23,.14-.49,.24-.73,.39-.24,.15-.51,.21-.79,.2-.17,0-.34-.02-.51-.03-.28-.02-.55-.01-.81,.1-.47,.2-.93,.2-1.39-.03-.06-.03-.13-.04-.2-.05-.18-.03-.37-.03-.49,.09-.44,.43-.99,.6-1.56,.73-.28,.06-.49,.25-.75,.32-.29,.08-.62,.03-.91,.12-.63,.19-1.29,.18-1.92,.36-.13,.04-.27,.04-.41,.02-.48-.04-.96-.07-1.43-.16-.26-.04-.51-.18-.75-.26-.2,.03-.32,.17-.46,.27-.32,.25-.66,.35-1.06,.2-.34-.13-.67-.12-1,.05-.06,.03-.13,.06-.19,.06-.1,0-.21-.02-.28-.08-.11-.08-.19-.19-.27-.3-.3-.43-.67-.78-1.1-1.07-.19-.12-.39-.12-.59-.01-.27,.15-.49,.39-.8,.45-.33,.06-.56,.23-.74,.5-.1,.16-.33,.21-.45,.12-.35-.25-.73-.36-1.15-.41-.16-.02-.35-.09-.46-.2-.23-.22-.49-.35-.8-.44-.19-.06-.39-.16-.54-.28-.32-.25-.58-.59-.95-.78-.46-.6-1.02-1.11-1.44-1.74-.28-.42-.43-.85-.44-1.34,0-.31-.01-.62,0-.93,0-.29-.12-.43-.41-.48-.23-.04-.31-.26-.36-.46-.21-.89-.18-1.77,.03-2.66,0-.03,.02-.07,.04-.09,.05-.04,.1-.11,.16-.11,.05,0,.13,.04,.16,.09,.23,.35,.29,.77,.37,1.17,0,.05,.1,.08,.15,.11,.02,0,.07,0,.09-.03,.23-.26,.46-.51,.6-.83,.05-.12,.01-.3-.1-.37-.09-.06-.19-.09-.27-.15-.11-.08-.24-.17-.28-.28-.1-.3-.27-.54-.51-.75-.23-.2-.25-.47-.13-.76,.11-.26,.28-.47,.55-.58,.28-.12,.32-.4,.24-.6-.16-.39-.23-.79-.3-1.19-.08-.44-.2-.87-.54-1.2-.27-.27-.46-.59-.52-.98-.05-.32-.24-.57-.48-.77-.2-.17-.41-.26-.67-.17-.58,.21-1.15,.13-1.73,.02-.13-.03-.28-.08-.36-.18-.35-.45-.83-.83-.89-1.47-.02-.21-.34-.29-.5-.15-.26,.22-.51,.46-.76,.69-.22,.19-.46,.3-.76,.23-.32-.07-.6,.02-.88,.18-.24,.13-.5,.21-.76,.32-.19,.08-.27,.34-.16,.52,.18,.31,.45,.51,.77,.65,.19,.08,.45,.05,.54,.26,.12,.26-.15,.43-.23,.64-.08,.19-.18,.37-.29,.55-.14,.24-.24,.5-.25,.78-.02,.9-.29,1.76-.45,2.64-.06,.33-.23,.57-.54,.69-.13,.05-.23,.14-.29,.27-.03,.07,0,.25,.08,.27,.1,.02,.2,.03,.3,.04,.18,.02,.31,.13,.42,.26,.09,.11,.07,.26-.06,.35-.08,.06-.19,.09-.26,.16-.04,.04-.07,.15-.04,.18,.34,.41,.46,.91,.57,1.42,.03,.13,.09,.26,.16,.38,.13,.21,.17,.44,.17,.69,0,.17,0,.34,0,.52,0,.46,.11,.88,.36,1.27,.17,.26,.33,.53,.51,.77,.25,.34,.46,.69,.34,1.14-.02,.06,0,.14,0,.21,.04,.45,.08,.9,.56,1.14,.4,.47,.82,.93,.86,1.6,.01,.21,.13,.39,.27,.55,.18,.21,.33,.44,.53,.63,.37,.36,.73,.73,.95,1.2,.07,.15,.22,.28,.39,.31,.44,.08,.71,.38,.98,.7,.18,.21,.37,.41,.56,.6,.12,.12,.25,.25,.4,.31,.55,.24,1,.6,1.39,1.05,.21,.24,.46,.41,.73,.56,.15,.09,.31,.15,.49,.11,.39-.1,.75-.05,1.08,.17,.24,.16,.5,.22,.78,.25,.37,.04,.75,.08,1.13,.12,.43,.05,.8,.18,1.05,.56,.05,.08,.13,.16,.21,.22,.14,.11,.32,.2,.47,.09,.36-.26,.71-.19,1.06-.03,.13,.06,.24,.15,.37,.18,.16,.05,.35,.1,.5,.06,.39-.09,.74-.05,1.1,.12,.29,.14,.6,.13,.9,.03,.27-.09,.53-.11,.81-.09,.69,.06,1.37,.11,2.06,.15,.27,.02,.56,.05,.82-.02,.54-.16,1.09-.15,1.64-.13,.38,.02,.74-.02,1.11-.15,.58-.2,1.14-.12,1.67,.24,.28,.19,.59,.34,.89,.51,.12,.07,.27,.03,.36-.1,.19-.29,.38-.57,.56-.86,.14-.23,.34-.37,.59-.35,.49,.03,.94-.12,1.41-.19,.45-.07,.86-.19,1.24-.45,.12-.08,.26-.07,.39-.02,.06,.02,.13,.05,.18,.09,.34,.27,.63,.16,.92-.1,.15-.14,.33-.24,.52-.32,.55-.23,1.11-.35,1.71-.26,.14,.02,.27,.02,.41,.03,.46,.03,.88-.08,1.27-.34,.28-.19,.59-.35,.88-.54,.35-.23,.73-.36,1.16-.35,.24,0,.49-.02,.7-.11,.36-.15,.73-.17,1.1-.23,.5-.08,1.01-.21,1.34-.67,.16-.22,.38-.29,.62-.31,.1,0,.21-.02,.31,0,.36,.04,.67,.01,.93-.29,.09-.11,.3-.16,.47-.17,.32-.03,.6-.14,.85-.33,.08-.06,.17-.12,.26-.16,.51-.27,1.02-.38,1.57-.08,.13,.07,.31-.02,.31-.17,0-.52,.38-.69,.76-.85,.12-.05,.27-.07,.4-.08,.25-.02,.49-.08,.67-.25,.49-.44,1.13-.45,1.71-.66,.28-.1,.57,.17,.53,.46-.06,.48-.2,.94-.46,1.35-.3,.46-.59,.92-.66,1.49-.01,.1-.04,.21-.11,.29-.31,.36-.36,.8-.42,1.25-.04,.27-.08,.55-.26,.77-.16,.2-.19,.42-.17,.68,.01,.17-.04,.34-.07,.5-.07,.33-.16,.67-.23,1-.08,.44-.13,.88-.22,1.32-.01,.07-.14,.14-.22,.18-.05,.03-.14,0-.2,0-.26,.01-.36,.1-.29,.29,.15,.41,.12,.81,0,1.22-.15,.5-.26,.99-.29,1.51-.01,.28-.09,.54-.29,.75-.15,.16-.2,.36-.24,.56-.02,.17-.03,.34-.06,.51-.07,.48-.18,.94-.48,1.34-.12,.16-.21,.37-.23,.56-.06,.58-.23,1.15-.17,1.74,.04,.35-.06,.68-.18,1.01-.11,.29-.23,.58-.3,.88-.21,.94-.4,1.88-.59,2.82-.06,.28-.13,.52-.36,.72-.11,.09-.13,.24-.06,.38,.13,.26,.12,.52,.09,.8-.16,1.26-.35,2.52-.31,3.8,0,.27-.04,.55-.1,.82-.11,.54-.19,1.08-.21,1.63-.02,.34-.07,.68-.15,1.02-.06,.25-.08,.47,.1,.68,.19,.22,.21,.5,.21,.78,0,.28-.05,.55-.17,.8-.12,.27-.11,.52,.02,.79,.07,.15,.13,.32,.16,.48,.09,.54,.16,1.09,.24,1.63,.03,.2,.07,.41,.12,.61,.05,.21,.17,.41,.39,.44,.53,.09,.83,.43,1.08,.87,.1,.18,.23,.34,.32,.53,.24,.5,.68,.78,1.14,.99,.55,.25,1.07,.63,1.72,.65,.16,0,.31,.13,.46,.21,.23,.12,.45,.13,.66-.06,.44-.38,.89-.75,1.35-1.11,.22-.17,.4-.36,.55-.6,.2-.32,.42-.62,.78-.8,.22-.11,.37-.31,.45-.54,.09-.26,.24-.5,.45-.68,.3-.26,.47-.59,.53-.98,.09-.6,.49-1.05,.7-1.59,.45-.53,.71-1.16,.94-1.81,.06-.16,.12-.34,.24-.45,.36-.33,.57-.77,.82-1.17,.29-.46,.66-.87,.82-1.41,.02-.06,.09-.1,.13-.16,.07-.12,.17-.23,.18-.36,.04-.37,.23-.63,.52-.85,.22-.17,.41-.38,.45-.67,.05-.36,.25-.63,.5-.88,.19-.19,.39-.39,.56-.6,.11-.13,.22-.28,.26-.43,.14-.47,.38-.88,.78-1.18,.08-.06,.12-.17,.18-.25,.48-.58,.87-1.23,1.49-1.69,.21-.16,.38-.39,.55-.61,.37-.49,.65-1.05,1.14-1.44,.05-.04,.06-.12,.1-.18,.08-.11,.14-.26,.24-.32,.33-.2,.52-.53,.76-.81,.16-.19,.32-.35,.36-.6,.04-.21,.15-.39,.34-.49,.28-.16,.48-.38,.63-.66,.41-.72,1.07-1.24,1.51-1.94,.15-.23,.37-.4,.63-.51,.23-.1,.38-.28,.51-.49,.09-.15,.16-.32,.28-.42,.27-.23,.47-.49,.55-.84,.04-.17,.16-.3,.31-.4,.2-.14,.39-.27,.58-.43,.13-.11,.28-.22,.36-.36,.29-.57,.71-1,1.24-1.35,.08-.06,.14-.15,.22-.22,.33-.35,.66-.7,1-1.04,.12-.12,.27-.21,.4-.32,.07-.05,.24-.02,.28,.04,.03,.06,.07,.13,.06,.19-.14,.57-.24,1.14-.53,1.66-.1,.18-.17,.38-.21,.58-.12,.61-.23,1.21-.53,1.77-.09,.18-.13,.39-.16,.6-.07,.44-.22,.86-.38,1.28-.09,.22-.14,.46-.21,.69-.05,.16-.07,.35-.17,.48-.21,.29-.27,.63-.34,.96-.09,.44-.16,.88-.22,1.32-.04,.28-.07,.54-.22,.79-.11,.18-.18,.37-.17,.59,.02,.35-.1,.67-.23,.99-.14,.35-.18,.72-.15,1.11,.04,.72-.04,1.44-.23,2.14-.05,.17-.09,.32-.08,.5,.02,.24,0,.48,0,.72,0,.2,0,.42,.07,.61,.15,.4,.15,.81,.12,1.22-.03,.38-.04,.76,.09,1.12,.13,.36,.2,.73,.2,1.11,0,.14,.04,.28,.17,.36,.35,.23,.49,.55,.48,.96,0,.1,.03,.22,.09,.29,.27,.29,.31,.68,.48,1.02,.19,.38,.53,.63,.77,.96,.04,.05,.08,.11,.12,.17,.51,.85,1.24,1.56,1.75,2.41,.21,.35,.49,.66,.92,.79,.16,.05,.29,.17,.42,.28,.26,.23,.5,.47,.76,.7,.1,.09,.2,.19,.33,.24,.32,.13,.65,.22,.9,.48,.26,.26,.65,.19,.96,.32,.06,.03,.12,.07,.17,.11,.26,.22,.55,.27,.87,.18,.13-.04,.27-.05,.4-.08,.26-.05,.47,.02,.63,.24,.14,.2,.34,.24,.54,.15,.36-.17,.72-.2,1.09-.04,.28,.12,.53,.02,.75-.18,.16-.15,.37-.18,.58-.13,.13,.03,.26,.08,.4,.11,.46,.12,.88,.06,1.25-.26,.02-.02,.06-.04,.08-.06,.19-.18,.41-.22,.66-.22,.2,0,.42,.02,.61-.04,.32-.11,.63-.26,.93-.43,.19-.11,.38-.18,.58-.17,.31,.02,.54-.12,.72-.33,.33-.4,.74-.59,1.26-.59,.06,0,.13-.04,.2-.07,.09-.09,.18-.19,.28-.29,.24-.26,.52-.44,.88-.49,.2-.03,.4-.1,.6-.16,.24-.07,.43-.2,.53-.44,.11-.27,.33-.47,.61-.51,.46-.07,.82-.34,1.23-.5,.33-.13,.61-.29,.83-.58,.16-.22,.38-.38,.65-.48,.15-.06,.28-.19,.42-.28,.17-.11,.33-.25,.52-.33,.31-.14,.48-.37,.58-.68,.03-.09,.08-.18,.13-.3,.55-.06,1.09-.15,1.43-.66,.05-.08,.17-.11,.26-.16,.19-.09,.34-.22,.49-.37,.31-.33,.65-.6,1.11-.71,.21-.05,.33-.22,.47-.38,.53-.59,1.04-1.19,1.78-1.53,.15-.07,.29-.19,.42-.3,.65-.56,1.3-1.12,1.99-1.63,.11-.08,.22-.18,.27-.3,.2-.44,.53-.7,1.01-.79,.28-.05,.51-.2,.7-.4,.19-.2,.41-.37,.56-.59,.35-.53,.87-.87,1.38-1.21,.6-.39,1.19-.8,1.69-1.33l.05-.24-.07,.66c.08-.11,.18-.23,.29-.28,.33-.16,.54-.41,.71-.72,.17-.31,.44-.54,.79-.62,.29-.07,.5-.23,.65-.46,.37-.56,1.02-.8,1.48-1.27,.02-.02,.06-.04,.09-.04,.37-.08,.73-.19,1.11-.16,.11,0,.24,.19,.2,.31-.03,.1-.04,.21-.11,.28-.29,.31-.37,.73-.6,1.07,0,.44-.26,.76-.47,1.11-.11,.18-.14,.38-.12,.6,.02,.17,.06,.34,.06,.51,0,.13-.05,.27-.11,.39-.04,.09-.12,.17-.19,.24-.28,.27-.46,.59-.46,1,0,.21-.08,.4-.18,.58-.24,.42-.46,.84-.57,1.32-.11,.46-.25,.91-.26,1.4,0,.44-.15,.88-.28,1.3-.08,.27-.13,.53-.17,.8-.11,.82-.09,1.65-.31,2.45-.04,.13-.01,.27,.02,.4,.03,.13,.13,.26,.14,.39,.05,.79,.29,1.54,.49,2.31,.04,.13,.03,.28,.1,.4,.26,.44,.54,.87,.81,1.31,.31,.19,.38,.56,.61,.82,.23,.26,.44,.52,.65,.8,.16,.22,.27,.48,.45,.68,.2,.23,.45,.42,.69,.62,.31,.27,.63,.53,.95,.79,.34,.28,.82,.35,1.12,.71,.44,.19,.88,.37,1.34,.56,.24-.15,.46-.3,.67-.43,.07,0,.1,0,.13,.01,.7,.26,1.39,.34,2.06-.12,.08-.06,.18-.09,.28-.12,.59-.2,1.13-.47,1.6-.89,.1-.09,.21-.19,.34-.23,.43-.12,.69-.43,.95-.76,.17-.21,.34-.44,.55-.61,.49-.4,.8-.92,1.14-1.44,.32-.48,.57-1.01,1.05-1.38,.19-.15,.32-.36,.37-.6,.04-.21,.15-.38,.29-.54,.2-.23,.38-.49,.58-.73,.22-.27,.41-.55,.42-.92,0-.21,.12-.38,.23-.56,.31-.5,.6-1,.86-1.52,.12-.24,.14-.52,.29-.76,.16-.26,.22-.58,.37-.84,.14-.24,.25-.49,.26-.77,0-.25,.08-.47,.24-.66,.23-.27,.37-.57,.37-.94,0-.17,.05-.34,.08-.51,.08-.37,.16-.72,.4-1.04,.18-.24,.28-.55,.37-.84,.25-.78,.38-1.6,.79-2.32,.06-.12,.06-.27,.1-.4,.14-.57,.28-1.13,.41-1.7,.08-.37,.14-.74,.22-1.11,.05-.23,.07-.49,.18-.69,.22-.41,.29-.84,.31-1.29,0-.17,.01-.34,.03-.51,.03-.36,.19-.65,.51-.85,.06-.03,.12-.07,.17-.12,.07-.08,.09-.18,.04-.28-.03-.06-.06-.12-.11-.17-.3-.37-.28-.75-.08-1.16,.11-.21,.19-.44,.3-.66,.03-.05,.1-.1,.16-.11,.17-.02,.34-.02,.51-.01,.28,.01,.56-.02,.78-.21,.39-.35,.83-.48,1.33-.4,.03,0,.07,0,.1,0,.32,0,.61-.12,.86-.31,.14-.1,.25-.23,.39-.34,.08-.06,.18-.13,.27-.14,.46,0,.88-.09,1.26-.36,.05-.04,.13-.03,.2-.04,.42-.03,.8-.17,1.17-.36,.24-.12,.52-.18,.78-.24,.44-.1,.85-.26,1.23-.49,.47-.28,.97-.5,1.51-.64,.15-.04,.29-.1,.44-.16,.15-.02,.28-.07,.41-.17h0s.04-.03,.05-.04c.18-.16,.39-.28,.64-.31,.46-.05,.85-.27,1.18-.58,.21-.19,.47-.29,.75-.31,.35-.02,.67-.1,.97-.3,.13-.09,.33-.11,.49-.13,.27-.02,.55-.02,.82-.01,.35,0,.68-.03,.98-.24,.11-.08,.24-.12,.37-.16,.21-.06,1.15-.48,1.36-.6,.05-.03,.14-.03,.19,0,.12,.07,.24,.14,.33,.24,.18,.22,.37,.28,.63,.12,.17-.1,.37-.19,.57-.22,.27-.05,.53-.15,.79-.2,.67-.15,1.35-.25,2.02-.37,.4,.09,.8,.18,1.2,.28,.47,.12,.85,.56,.85,1.04-.01,.82,.04,1.65-.27,2.44-.06,.16-.08,.33-.11,.5-.04,.27-.09,.54-.23,.79-.08,.15-.1,.33-.13,.49-.1,.58-.25,1.14-.49,1.68-.11,.25-.18,.52-.22,.79-.05,.3-.11,.61-.18,.91-.03,.13-.07,.27-.16,.37-.24,.27-.31,.61-.39,.94-.08,.34-.18,.66-.38,.95-.12,.17-.19,.36-.2,.58-.01,.68-.29,1.28-.67,1.81-.43,.6-.55,1.33-.87,1.97-.02,.47-.29,.84-.53,1.21-.26,.4-.38,.88-.62,1.29,.01,.54-.34,.97-.48,1.46-.13,.43-.31,.85-.61,1.17-.28,.29-.42,.62-.5,.99-.13,.58-.13,1.15,.02,1.73,.3,1.14,.38,1.28,1.28,2.16,.1,.09,.2,.19,.26,.31,.16,.36,.44,.61,.72,.86,.2,.18,.42,.36,.6,.57,.26,.32,.6,.44,.98,.51,.41,.08,.81,.05,1.22-.08,.63-.21,1.2-.51,1.69-.96,.1-.09,.19-.21,.31-.27,.3-.14,.5-.34,.58-.67,.01-.06,.06-.14,.11-.17,.41-.27,.58-.77,1-1.03,.39-.52,.88-.95,1.21-1.53,.27-.47,.61-.91,1.07-1.23,.2-.14,.37-.32,.41-.57,.06-.33,.31-.52,.53-.74,.09-.1,.23-.15,.34-.23,.35-.28,.7-.55,.85-1.01,.06-.21,.24-.34,.4-.46,.7-.51,1.3-1.13,1.83-1.8,.18-.23,.38-.39,.67-.43,.4-.06,.7-.26,.95-.57,.13-.16,.25-.33,.37-.49,.1-.14,.18-.29,.3-.41,.43-.4,.82-.83,1.23-1.24,.39-.38,.85-.56,1.34-.72,.28-.09,.59,.15,.55,.44-.05,.37-.12,.74-.18,1.12-.09,.48-.1,.93,.16,1.4,.19,.35,.22,.79,.43,1.15,.05,.08,.05,.2,.05,.3,.01,.62,.1,1.23,.39,1.8,.03,.06,.02,.14,.04,.2,.18,.55,.36,1.11,.47,1.68,.04,.23,.18,.45,.3,.64,.22,.35,.45,.69,.49,1.12,.02,.25,.13,.47,.3,.64,.27,.27,.43,.61,.63,.93,.36,.58,.68,1.19,1.15,1.7,.11,.12,.18,.29,.27,.43,.09,.15,.15,.33,.27,.44,.5,.46,.86,1.07,1.5,1.39,.09,.04,.18,.11,.24,.19,.28,.39,.71,.65,.94,1.09,.03,.06,.08,.12,.14,.15,.4,.19,.75,.49,1.21,.54,.27,.03,.54,.08,.82,.1,.28,.02,.53,.13,.79,.21,.41,.13,.68,.46,1.07,.66,.18-.01,.39-.06,.59-.04,.38,.04,.74,.03,1.12-.05,.4-.09,.82-.07,1.22,.08,.51,.19,1.01,.14,1.52,0,.23-.07,.46-.13,.7-.16,.46-.05,.88-.23,1.21-.52,.52-.45,1.12-.63,1.79-.66,.3-.01,.64-.05,.9-.18,.39-.2,.77-.26,1.19-.27,.3,0,.53-.14,.68-.39,.15-.25,.36-.4,.65-.45,.17-.03,.31-.13,.45-.24,.06-.04,.12-.08,.17-.13,1.03,.05,1.37,.23,2.06,1.04,.04,.05,.07,.12,.12,.17,.1,.09,.2,.19,.32,.25,.21,.12,.43,.2,.65,.31,.21,.1,.39,.09,.56-.08,.14-.14,.3-.15,.47-.07,.09,.04,.17,.11,.26,.16,.44,.23,.9,.33,1.38,.13,.4-.17,.79-.19,1.21-.08,.23,.06,.47,.11,.71,.13,.17,.02,.36,.02,.5-.04,.46-.22,.98-.35,1.24-.86,.03-.05,.11-.08,.16-.12,.07-.01,.13-.04,.2-.03,.66,.05,1.3-.11,1.93-.29,.16-.04,.35-.11,.45-.24,.24-.33,.53-.51,.95-.53,.13,0,.26-.09,.38-.15,.86-.43,1.75-.8,2.54-1.36,.11-.08,.24-.13,.38-.15,.21-.04,.39-.12,.57-.21,.34-.17,.68-.32,1.04-.48,.07-.1,.15-.21,.23-.33,.26-.38,.6-.62,1.07-.72,.36-.07,.72-.25,1.04-.44,.23-.14,.38-.41,.6-.55,.22-.15,.5-.2,.75-.31,.09-.04,.17-.11,.25-.18,.53-.5,1.12-.89,1.85-1.05,.09-.02,.2-.08,.26-.15,.28-.36,.65-.61,1.03-.84,.39-.23,.73-.51,.94-.93,.12-.23,.3-.38,.56-.41,.19-.02,.34-.09,.48-.19h.02c.13-.07,.36-.07,.51-.12,.26-.09,.44-.24,.55-.48,.09-.18,.25-.28,.4-.39,.58-.39,1.14-.79,1.51-1.4,.08-.13,.21-.24,.31-.35,.63-.7,1.36-1.31,2.05-1.95,.26-.24,.52-.46,.8-.66,.38-.28,.74-.59,.92-1.05,.1-.26,.33-.38,.58-.44,.21-.05,.43-.08,.64-.12,.07-.24,.09-.47,.2-.65,.24-.4,.44-.84,.87-1.1,.15-.09,.25-.28,.38-.42,.08-.09,.15-.21,.25-.27,.32-.19,.59-.47,.98-.55,.19-.04,.32-.17,.45-.33,.3-.37,.6-.73,.93-1.07,.34-.37,.71-.72,1.22-.85,.19-.05,.34-.17,.48-.29,.07-.06,.15-.11,.24-.15,.05-.02,.13-.01,.17,.02,.04,.03,.08,.1,.09,.16,.04,.46-.08,.89-.35,1.25-.22,.29-.33,.6-.38,.95-.06,.38-.21,.72-.43,1.04-.28,.42-.54,.85-.8,1.28-.06,.11-.14,.23-.14,.35-.02,.4-.23,.72-.37,1.06-.07,.17-.19,.34-.22,.52-.11,.6-.42,1.12-.67,1.66-.11,.23-.2,.45-.23,.71-.09,.63-.28,1.23-.59,1.79-.14,.25-.28,.49-.43,.74-.17,.29-.07,.62-.16,.93-.3,1.08-.17,2.2-.24,3.3-.03,.37,.47,1.72,.7,2.04,.26,.36,.49,.74,.8,1.06,.31,.32,.59,.65,.82,1.03,.02,.03,.04,.05,.06,.07,.3,.27,.6,.56,.92,.82,.53,.44,1.06,.89,1.78,1.04,.24,.05,.46,.21,.69,.3,.29,.1,.54-.16,.82-.15,.29,0,.56-.03,.83-.15,.11-.05,.25-.06,.37-.05,.56,.04,1.06-.14,1.54-.4,.18-.1,.35-.14,.54-.08,.27,.08,.48-.03,.7-.18,.4-.26,.7-.63,1.05-.95,.25-.23,.51-.35,.83-.42,.21-.04,.45,0,.67-.17,.19-.28,.42-.57,.5-.96,.04-.2,.16-.34,.37-.4,.41-.12,.72-.38,.96-.73,.13-.19,.28-.34,.48-.44,.2-.09,.36-.25,.52-.4,.27-.26,.56-.5,.85-.75,.26-.23,.69-.2,.9-.5,.19-.28,.34-.59,.62-.82,.27-.22,.49-.49,.8-.65,.14-.07,.24-.2,.36-.31,.21-.19,.43-.38,.61-.59,.17-.2,.38-.33,.63-.39,.35-.09,.62-.31,.78-.64,.19-.38,.46-.66,.8-.92,.2-.15,.33-.38,.5-.56,.11-.11,.23-.21,.37-.29,.14-.08,.3-.11,.44-.18,.35-.17,.63-.41,.81-.77,.04-.08,.08-.17,.12-.25,.09-.17,.22-.3,.41-.37,.14-.06,.29-.14,.39-.25,.17-.17,.36-.24,.59-.28,.13-.02,.23-.1,.31-.2,.1-.12,.19-.26,.3-.36,.06-.06,.18-.1,.26-.08,.25,.07,.42-.02,.59-.2,.17-.19,.34-.37,.52-.55,.18-.17,.36-.38,.57-.48,.19-.09,.43-.06,.65-.08,.14-.2,.28-.41,.42-.62,.12-.16,.28-.25,.47-.3,.09-.02,.19-.05,.28-.05,.48-.01,.84-.23,1.1-.63,.05-.08,.13-.14,.19-.21,.4-.1,.8-.17,1.13-.44,.6-.23,1.19-.42,1.83-.15,.11,.05,.25,.05,.37,.05,.44-.02,.88-.08,1.29-.27,.5-.24,1.02-.31,1.57-.16,.24,.07,.5,.09,.74,.14,.12,.03,.26,.03,.36,.1,.47,.3,1.05,.47,1.31,1.03,.47,.41,.7,.96,.87,1.54,.04,.12,.08,.24,.15,.35,.46,.73,.68,1.56,.92,2.37,.14,.45,.24,.92,.45,1.34,.18,.35,.29,.7,.34,1.07,.04,.34,.06,.69,.11,1.04,.12,.81,.15,1.64,.52,2.39,.04,.08,.06,.2,.03,.27-.14,.36-.15,.74-.14,1.12,0,.17-.07,.31-.21,.41-.47,.32-.96,.61-1.5,.79-.18,.06-.39,.08-.53,.19-.24,.18-.5,.26-.78,.32-.16,.03-.29,.11-.4,.24-.1,.12-.2,.24-.3,.36-.1,.13-.24,.2-.4,.24-.03,0-.06,.01-.09,.02-.47,.02-.85,.21-1.11,.61-.08,.13-.22,.24-.35,.31-.73,.38-1.38,.87-2.04,1.36-.27,.21-.62,.32-.89,.53-.28,.21-.5,.48-.76,.71-.14,.13-.31,.21-.52,.17-.26-.05-.49,.02-.7,.2-.14,.12-.32,.2-.49,.29-.28,.15-.55,.33-.74,.58-.4,.5-.93,.84-1.47,1.16-.35,.2-.76,.3-1.05,.62-.1,.1-.29,.11-.43,.19-.2,.1-.42,.18-.57,.33-.26,.27-.55,.52-.84,.76-.13,.11-.19,.25-.21,.41-.02,.15,0,.32-.09,.46-.03,.02-.05,.04-.08,.05-.06,0-.12,.01-.18,0-.46-.09-.81,.06-1.04,.47-.12,.21-.32,.3-.55,.3-.2,0-.37,.06-.49,.23-.23,.31-.51,.56-.88,.69-.09,.03-.2,.07-.24,.14-.28,.45-.75,.65-1.17,.92-.23,.15-.42,.37-.62,.57-.12,.12-.24,.21-.41,.21-.32,0-.52,.17-.68,.43-.15,.24-.3,.5-.52,.67-.48,.37-.9,.79-1.29,1.25-.15,.17-.34,.28-.52,.41-.24,.17-.54,.17-.79,.27-.02,.03-.05,.06-.05,.09,0,.19,0,.39-.27,.41-.16,.01-.31,.08-.42,.2-.21,.23-.45,.44-.63,.7-.27,.4-.71,.62-.98,1.02-.05,.07-.16,.1-.24,.14-.47,.26-.93,.51-1.15,1.05-.04,.11-.17,.18-.26,.27-.15,.16-.32,.31-.45,.48-.11,.15-.16,.35-.28,.49-.14,.16-.36,.01-.54,.08-.09,.03-.18,.07-.25,.12-.12,.1-.24,.2-.35,.32-.11,.12-.24,.2-.39,.25-.09,.03-.18,.05-.27,.08-.45,.16-.77,.43-.73,.96,0,.03,0,.06,0,.09-.02,.2-.1,.39-.31,.43-.43,.1-.72,.38-.96,.72-.28,.38-.58,.75-.97,1.03-.21,.15-.34,.36-.44,.6-.06,.14-.16,.29-.29,.36-.29,.15-.48,.4-.69,.64-.28,.33-.66,.56-.88,.96-.07,.12-.24,.2-.38,.27-.17,.09-.33,.19-.43,.36-.29,.45-.58,.9-.87,1.35-.16,.25-.35,.45-.63,.55-.12,.04-.26,.08-.34,.16-.31,.36-.65,.68-1.08,.9-.1,.05-.17,.19-.23,.3-.07,.14-.1,.3-.16,.44-.04,.09-.07,.19-.14,.24-.41,.3-.73,.69-1.02,1.1-.03,.05-.09,.08-.15,.12-.16,.11-.26,.27-.34,.45-.11,.23-.21,.46-.34,.68-.3,.53-.74,.94-1.24,1.28-.13,.09-.28,.17-.35,.3-.39,.64-1,1.14-1.2,1.91-.02,.06-.05,.13-.1,.16-.35,.2-.42,.63-.72,.87-.3,.25-.49,.57-.72,.87-.19,.25-.37,.5-.39,.84-.01,.23-.17,.4-.31,.57-.19,.21-.39,.41-.58,.63-.22,.26-.55,.43-.69,.76-.39,.32-.55,.75-.63,1.23-.04,.26-.21,.44-.41,.61-.41,.34-.81,.7-1.28,.96-.1,.06-.14,.22-.1,.34,.02,.06,.04,.12,.08,.17,.17,.25,.12,.47-.04,.7-.13,.18-.29,.34-.37,.54-.1,.25-.24,.42-.49,.54-.3,.14-.51,.4-.51,.74,0,.4-.17,.74-.35,1.07-.2,.35-.52,.63-.62,1.05-.01,.05-.07,.11-.13,.13-.26,.14-.32,.36-.33,.63,0,.12-.06,.25-.11,.36-.23,.45-.43,.92-.7,1.34-.26,.41-.44,.83-.41,1.33,0,.15,0,.35-.09,.45-.21,.26-.17,.61-.38,.86-.11,.13-.16,.28-.14,.44,.06,.44-.1,.82-.35,1.15-.29,.39-.48,.81-.56,1.29-.02,.12-.1,.23-.13,.36-.04,.18-.1,.37-.1,.56,0,.42-.08,.81-.19,1.21-.07,.27-.11,.56-.16,.84-.05,.25-.07,.5-.15,.74-.13,.4-.11,.8-.06,1.22,.12,.84,.21,1.69,.31,2.54,.04,.35,.09,.68,.29,.99,.1,.15,.13,.35,.19,.53,.05,.15,.08,.31,.17,.44,.18,.27,.28,.56,.36,.87,.03,.12,.07,.26,.14,.35,.29,.33,.56,.7,.91,.96,.52,.4,1.01,.85,1.56,1.22,.46,.32,.89,.7,1.48,.81,.18,.03,.35,.14,.51,.25,.37,.24,.73,.5,1.09,.75,.16,.11,.33,.23,.52,.2,.54-.09,.97,.13,1.43,.37,.36,.19,.66,.48,1.08,.58,.1,.03,.2,.15,.27,.25,.16,.23,.39,.31,.65,.3,.28,0,.57,0,.85,0,.16,0,.32-.02,.47,0,.43,.08,.87,.16,1.29,.3,.31,.1,.61,.13,.93,.1,.69-.07,1.38-.1,2.06,.13,.15,.05,.31,.04,.47,.06,.85,.11,1.7,.07,2.55,.04,.44-.02,.88,0,1.27,.15,.24-.1,.44-.2,.64-.28,.3-.11,.61-.16,.92-.02,.18,.08,.37,.09,.56,.07,.54-.05,1.06-.15,1.56-.36,.12-.05,.25-.09,.33-.17,.28-.31,.63-.4,1.02-.45,.15-.02,.31-.07,.45-.14,.28-.16,.58-.24,.89-.3,.19-.03,.38-.09,.51-.23,.17-.18,.37-.2,.6-.19,.25,.01,.51-.02,.76,0,.28,.02,.49-.08,.67-.28,.1-.12,.2-.25,.32-.35,.37-.3,.75-.59,1.25-.62,.33-.02,.6-.18,.84-.4,.25-.24,.51-.47,.89-.49,.11,0,.25-.08,.33-.17,.18-.2,.4-.3,.65-.36,.19-.05,.34-.16,.47-.3,.19-.22,.4-.39,.7-.44,.11-.02,.22-.12,.31-.21,.2-.21,.43-.35,.72-.43,.48-.14,.96-.32,1.31-.72,.08-.09,.21-.14,.32-.2,.38-.19,.68-.46,.91-.81,.22-.32,.53-.52,.9-.66,.56-.21,1.31-.74,1.56-1.17,.13-.22,.22-.46,.39-.65,.19-.21,.45-.33,.65-.53,.2-.2,.36-.44,.53-.66,.1-.13,.24-.2,.41-.22,.16-.01,.32,0,.47-.01,.2-.02,.42-.23,.46-.43,.01-.06,.01-.13,0-.19-.02-.26,.12-.42,.32-.54,.19-.11,.4-.19,.6-.29,.23-.12,.42-.3,.47-.56,.06-.29,.19-.52,.38-.74,.35-.4,.67-.83,.91-1.32,.11-.23,.25-.44,.5-.55,.25-.1,.4-.3,.51-.53,.19-.38,.48-.65,.84-.86,.32-.19,.61-.44,.92-.68,.03-.39,.2-.69,.53-.94,.22-.16,.36-.44,.52-.67,.05-.07,.1-.17,.1-.26,.01-.37,.17-.66,.46-.89,.15-.11,.24-.29,.36-.44,.28-.35,.59-.65,.98-.76,.56-.83,.92-1.72,1.48-2.48,.09-.12,.14-.29,.15-.44,.02-.37,.2-.66,.4-.95,.18-.26,.37-.51,.52-.79,.13-.24,.3-.4,.58-.43,.27-.03,.4-.15,.36-.44-.03-.16,.05-.31,.13-.45,.08-.13,.2-.27,.21-.41,.02-.3,.17-.53,.32-.77,.11-.19,.24-.39,.26-.6,.05-.45,.32-.73,.6-1.04,.3-.32,.55-.69,.92-.95,.18-.13,.27-.35,.28-.58,0-.13,0-.25,0-.38,0-.2,.05-.38,.22-.5,.14-.09,.21-.23,.25-.39,.06-.28,.12-.55,.15-.84,.03-.37,.21-.66,.46-.9,.09-.09,.22-.14,.3-.23,.08-.09,.17-.21,.18-.32,.04-.44,.13-.87,.29-1.29-.02-.42,.2-.71,.47-.99,.16-.17,.25-.39,.22-.61-.06-.4,.15-.74,.19-1.11,.04-.38,.15-.74,.39-1.05,.05-.07,.07-.18,.09-.27,.15-.64,.44-1.25,.53-1.91,.02-.15,.11-.29,.15-.45,.17-.57,.49-1.09,.6-1.69,.03-.15,.12-.29,.2-.43,.14-.22,.22-.46,.19-.72-.03-.26,.04-.49,.16-.73,.08-.17,.08-.37,.16-.54,.14-.29,.23-.59,.21-.91-.01-.2,.08-.36,.21-.51,.08-.1,.17-.21,.13-.34-.09-.3,.03-.55,.14-.82,.16-.38,.27-.77,.22-1.2-.03-.26,.04-.51,.2-.72,.27-.35,.32-.75,.29-1.17-.02-.28-.03-.57-.04-.85,0-.19,.02-.38,.17-.52,.29-.26,.35-.58,.34-.94-.01-.41-.04-.83,.11-1.22,.16-.43,.16-.86,.13-1.31-.02-.25-.04-.52,.03-.75,.11-.4,.11-.81,.28-1.19,.06-.14,.05-.31,.04-.46s-.07-.31-.08-.46c0-.12,.02-.28,.09-.35,.22-.23,.25-.49,.24-.79,0-.25-.01-.51,.02-.76,.08-.7,.03-1.39-.17-2.06-.17-.57-.14-1.13,.21-1.63,.14-.2,.17-.42,.08-.63-.15-.36-.15-.72-.1-1.11,.05-.43,0-.88,.08-1.32,.03-.18-.02-.38-.08-.56-.12-.39-.2-.79-.21-1.21,0-.22-.01-.44-.05-.66-.06-.39,0-.75,.16-1.11,.06-.14,.11-.29,.16-.44,.14-.43,.42-.69,.88-.75,.06,0,.11-.05,.2-.09,.08-.1,.17-.23,.27-.35,.53-.6,1.17-.95,2.01-.81,.12,.02,.25,.05,.37,.04,.08-.01,.16-.09,.22-.16,.04-.04,.05-.12,.05-.18,.02-.37,.23-.58,.57-.66,.4-.09,.78-.22,1.15-.41,.16-.08,.37-.12,.55-.1,.31,.02,.56-.06,.78-.26,.58-.22,1.06-.69,1.73-.69,.09,0,.19-.04,.27-.09,.49-.29,1.07-.38,1.54-.72,.11-.08,.24-.05,.36,.02,.1,.06,.2,.12,.3,.19h0c.03-.16,.05-.31,.08-.46,.03-.14,.16-.25,.26-.21,.43,.15,.8,.09,1.13-.22,.06-.06,.17-.1,.26-.11,.43-.05,.76-.3,1.06-.57,.07-.06,.15-.11,.26-.18,.39,.07,.79,.11,1.19-.02,.09-.03,.19-.02,.28,0,.36,.05,.61-.11,.79-.4,.03-.05,.07-.11,.12-.15,.15-.14,.33-.17,.53-.12,.06,.02,.12,.05,.17,.08,.35,.17,.68,.14,.93-.18,.17-.21,.39-.31,.66-.31,.25,0,.51-.04,.76-.02,.24,.03,.48,.11,.7,.17,.07-.06,.13-.09,.16-.14,.27-.4,.65-.57,1.13-.59,.28-.02,.57-.05,.84,.06,.16,.06,.3,.03,.45-.04,.08-.04,.19-.06,.27-.04,.23,.07,.43,.07,.63-.06,.08-.05,.17-.09,.26-.12,.3-.09,.54-.05,.74,.24,.17,.25,.34,.24,.54,.04,.07-.07,.13-.14,.19-.22,.15-.19,.35-.26,.58-.25,.25,.02,.5,.01,.75-.05,.18-.05,.37-.07,.56-.1,.37-.06,.69,.01,.94,.31,.15,.18,.36,.24,.59,.24,.03,0,.06,0,.09,0,.35-.06,.61,.1,.83,.36,.19,.22,.42,.38,.63,.57,.33,.31,.64,.61,1.15,.38,.09-.04,.25,.02,.36,.06,.28,.08,.56,.1,.84,.08,.35-.01,.69-.04,1.04-.04,.28,0,.49-.1,.64-.33,.11-.16,.21-.31,.3-.48,.1-.17,.2-.32,.37-.42,.14-.08,.28-.15,.36-.19,.43-.68,.59-1.39,.78-2.09,.07-.28,.08-.56,.05-.84-.04-.37-.19-.66-.51-.86ZM79.23,40.02c.12-.16,.29-.29,.42-.44,.38-.44,.81-.84,.96-1.43,.06-.24,.22-.44,.42-.57,.56-.37,.92-.91,1.31-1.43,.14-.19,.3-.37,.42-.58,.21-.36,.5-.64,.85-.87,.4-.27,.77-.58,.99-1.02,.49-.41,.78-.95,.97-1.5,.15-.22,.38-.23,.55-.34,.32-.2,.63-.42,.82-.76,.08-.15,.2-.28,.28-.43,.13-.25,.32-.44,.56-.58,.12-.07,.24-.16,.3-.27,.32-.62,.86-1.06,1.33-1.54,.53-.54,1.08-1.05,1.7-1.49,.03-.15,.07-.28,.09-.41,.04-.21,.13-.39,.29-.53,.21-.18,.41-.37,.62-.53,.54-.42,1.02-.92,1.47-1.43,.34-.39,.71-.74,1.17-.99,.2-.11,.33-.24,.37-.46,.06-.32,.22-.57,.53-.71,.12-.06,.25-.15,.32-.26,.36-.6,.97-.96,1.4-1.49,.18-.22,.38-.4,.64-.5,.3-.11,.55-.31,.71-.57,.23-.36,.52-.63,.86-.87,.26-.18,.45-.41,.62-.68,.28-.44,.66-.79,1.17-.96,.2-.07,.35-.2,.51-.34,.25-.23,.57-.38,.81-.62,.23-.23,.49-.36,.78-.48,.17-.07,.27-.21,.36-.35,.2-.33,.47-.59,.77-.83,.14-.12,.3-.17,.48-.13,.09,.02,.21,.07,.25,.14,.04,.07,.03,.21-.02,.28-.11,.17-.25,.33-.4,.47-.18,.17-.32,.36-.38,.6-.09,.34-.28,.63-.5,.89-.05,.05-.11,.1-.13,.15-.35,.86-1.12,1.37-1.71,2.02-.26,.29-.53,.55-.63,.92-.11,.39-.37,.66-.66,.9-.22,.18-.41,.37-.45,.66-.02,.14-.12,.24-.22,.33-.26,.22-.52,.45-.77,.68-.1,.09-.23,.18-.27,.3-.17,.4-.48,.66-.82,.9-.14,.1-.27,.22-.4,.33-.24,.21-.43,.44-.49,.76-.05,.29-.22,.5-.46,.66-.14,.1-.27,.21-.42,.3-.28,.19-.6,.35-.85,.58-.22,.21-.4,.46-.66,.64-.1,.07-.17,.22-.19,.35-.07,.37-.27,.62-.61,.78-.06,.03-.12,.07-.18,.1-.26,.12-.46,.31-.57,.57-.16,.37-.43,.61-.77,.8-.12,.07-.23,.14-.34,.23-.08,.06-.17,.13-.21,.22-.14,.37-.44,.6-.75,.82-.19,.14-.4,.29-.53,.48-.44,.71-1.11,1.2-1.69,1.78-.1,.1-.21,.2-.33,.24-.52,.2-.81,.61-1.1,1.04-.08,.11-.17,.22-.24,.31-.09,.03-.15,.08-.21,.08-.35,0-.57,.2-.76,.46-.18,.25-.33,.52-.55,.74-.14,.14-.26,.31-.45,.42-.43,.23-.72,.63-1.09,.93-.08,.06-.15,.14-.21,.23-.47,.75-1.18,1.23-1.92,1.67-.35,.21-.75,.35-.94,.76-.05,.11-.2,.18-.3,.27-.2,.18-.43,.35-.61,.55-.31,.34-.69,.55-1.1,.73-.15,.06-.37-.1-.35-.27,.02-.13,.04-.28,.11-.38Zm52.74,41.58c-.19,.62-.26,1.28-.5,1.88-.05,.13-.12,.24-.17,.37-.02,.06-.05,.14-.03,.2,.12,.55-.2,1.08-.1,1.63,.1,.58-.04,1.11-.38,1.56-.26,.34-.4,.71-.46,1.13-.05,.34-.12,.67-.31,.97-.18,.3-.27,.63-.32,.97-.02,.14-.02,.29-.09,.4-.27,.45-.36,.96-.48,1.46-.03,.13-.1,.26-.2,.36-.21,.2-.32,.43-.36,.72-.04,.32-.29,.54-.45,.8-.19,.29-.38,.57-.36,.94,.01,.29-.1,.53-.27,.76-.28,.39-.53,.8-.84,1.17-.19,.23-.3,.45-.29,.74,0,.27-.12,.47-.38,.54-.3,.08-.45,.29-.57,.55-.36,.75-.83,1.42-1.4,2.02-.05,.05-.1,.1-.15,.15-.11,.11-.37,.09-.46-.05-.08-.11-.15-.23-.18-.36-.06-.27-.02-.54,.05-.81,.05-.2,.15-.4,.13-.6-.07-.7,.15-1.36,.16-2.05,.01-.49,.27-.92,.48-1.35,.09-.19,.21-.36,.23-.57,.06-.77,.39-1.46,.64-2.17,.03-.1,.11-.18,.12-.28,.06-.53,.32-.97,.66-1.37,.14-.16,.18-.37,.18-.58,0-.36,.11-.67,.43-.88,.23-.15,.38-.4,.47-.66,.15-.43,.33-.82,.65-1.15,.09-.1,.17-.23,.2-.36,.14-.8,.7-1.4,1.01-2.12,.15-.35,.34-.67,.42-1.04,.04-.2,.11-.42,.24-.56,.31-.34,.47-.74,.65-1.15,.2-.43,.4-.87,.7-1.25,.19-.24,.3-.54,.46-.8,.1-.19,.3-.27,.53-.22,.15,.03,.25,.12,.29,.26,.05,.16,.05,.34,.07,.4,0,.21,.03,.32,0,.42Zm16.84-3.62c.21-.21,.45-.3,.75-.27,.15,.02,.29,.02,.44,.03-.62,.14-1.23,.27-1.19,.24Zm65.21,7.38c-.03,.05-.09,.11-.16,.13-.15,.06-.24,.16-.29,.28-.06,.14-.23,.21-.35,.3-.14,.11-.29,.21-.32,.38-.02,.13-.12,.23-.24,.31-.21,.14-.4,.29-.63,.42-.14,.08-.23,.16-.25,.3-.02,.12-.12,.2-.29,.2-.19,0-.3,.07-.4,.17-.29,.29-.65,.54-1.06,.73l-.1,.05c-.08,.03-.23,0-.27-.08-.03-.06-.07-.12-.07-.19-.01-.13,.04-.25,.12-.36,.05-.08,.13-.16,.14-.25,.03-.32,.23-.6,.31-.9,.06-.22,.26-.38,.43-.55,.07-.07,.16-.13,.2-.23,.12-.34,.39-.61,.61-.9,.03-.04,.08-.07,.1-.11,.09-.23,.16-.44,.4-.58,.1-.06,.15-.14,.17-.24,.04-.16,.1-.35,.32-.41,.16-.04,.27-.13,.35-.24,.13-.17,.29-.33,.51-.44,.07-.03,.13-.08,.16-.14,.17-.34,.57-.54,.83-.83,.13-.14,.28-.26,.36-.42,.05-.08,.11-.18,.2-.22,.22-.11,.36-.28,.51-.43,.17-.17,.33-.34,.55-.48,.14-.09,.41-.09,.52-.2,.08-.07,.21-.08,.34-.03,.08,.03,.14,.09,.15,.15,.01,.08,0,.16,0,.19-.02,.1-.02,.15-.05,.19-.18,.26-.29,.54-.5,.79-.04,.05-.1,.1-.14,.15-.02,.03-.04,.06-.04,.09,.01,.27-.24,.46-.23,.72,0,.27-.14,.49-.39,.65-.19,.12-.31,.27-.39,.45-.07,.15-.14,.29-.29,.4-.14,.11-.23,.25-.29,.4-.03,.06-.04,.13-.1,.17-.21,.17-.32,.39-.44,.6Zm69.3,25.19c-.09,.16-.16,.34-.23,.5,.05,.17,.09,.32,.14,.47,.06,.22,.07,.44-.02,.65-.36,.84-.35,1.71-.27,2.6,.02,.16,.05,.31,.04,.47-.09,.91-.14,1.83-.29,2.73-.11,.68-.19,1.37-.46,2.02-.09,.21-.08,.43-.07,.65,0,.23-.03,.44-.19,.61-.14,.15-.16,.34-.13,.53,.05,.36-.01,.68-.17,1.01-.22,.46-.35,.95-.3,1.47,.02,.25-.02,.5-.12,.74-.2,.53-.26,1.11-.61,1.58-.05,.07-.07,.18-.06,.27,.06,.55-.16,1.06-.23,1.58-.07,.49-.28,.97-.45,1.44-.22,.59-.46,1.18-.73,1.75-.11,.24-.2,.46-.17,.72,.03,.29-.03,.56-.19,.81-.08,.13-.13,.29-.23,.41-.4,.55-.58,1.19-.72,1.84-.06,.29-.17,.54-.34,.77-.16,.2-.26,.43-.27,.69,0,.15-.03,.34-.12,.45-.22,.26-.25,.58-.36,.87-.11,.29-.15,.62-.3,.89-.15,.27-.37,.5-.49,.81-.04,.11-.16,.19-.25,.28-.12,.11-.2,.25-.22,.41-.03,.25-.1,.49-.22,.72-.18,.33-.47,.6-.48,1.01-.17,.34-.38,.66-.52,1.01-.23,.56-.65,1.01-.87,1.56-.09,.21-.32,.29-.51,.4-.15,.09-.21,.23-.2,.4,0,.06,0,.13,.02,.19,.08,.35-.07,.6-.3,.85-.38,.42-.73,.85-1.01,1.35-.2,.36-.44,.69-.75,.97-.17,.16-.29,.34-.35,.55-.09,.38-.33,.68-.53,.99-.14,.22-.28,.41-.53,.53-.15,.07-.26,.19-.3,.35-.07,.32-.26,.57-.47,.81-.06,.07-.12,.15-.16,.23-.14,.29-.36,.41-.68,.43-.22,.01-.3,.09-.3,.29,0,.34-.12,.61-.34,.85-.06,.07-.11,.15-.16,.23-.16,.24-.34,.45-.62,.56-.27,.11-.48,.3-.58,.59-.07,.18-.18,.33-.36,.42-.15,.08-.26,.2-.27,.36-.03,.32-.23,.51-.45,.7-.1,.08-.21,.14-.3,.23-.08,.09-.17,.19-.2,.31-.09,.29-.23,.52-.55,.58-.23,.05-.4,.18-.49,.4-.11,.24-.3,.4-.54,.5-.36,.14-.65,.39-.92,.65-.19,.18-.34,.37-.43,.61-.04,.12-.07,.27-.16,.34-.36,.27-.55,.69-.89,.97-.31,.26-.61,.54-.91,.82-.14,.13-.29,.25-.39,.41-.2,.33-.46,.5-.85,.51-.11,0-.24,.1-.32,.18-.57,.64-1.3,1.1-1.91,1.69-.08,.08-.22,.12-.33,.16-.15,.06-.34,.05-.44,.15-.27,.28-.68,.31-.97,.57-.29,.27-.63,.5-.92,.79-.19,.2-.48,.3-.69,.48-.2,.18-.42,.27-.68,.29-.19,.02-.38,.04-.57,.06-.12,.02-.27,.02-.37,.09-.34,.24-.71,.38-1.13,.41-.11,0-.22,.11-.31,.2-.22,.21-.47,.31-.78,.25-.35-.08-.61,.06-.83,.33-.15,.19-.35,.27-.59,.25-.43-.04-.81,.08-1.18,.28-.14,.08-.29,.11-.44,.18-.3,.14-.6,.19-.91,.02-.15-.08-.31-.07-.46,.01-.39,.23-.85,.22-1.27,.35-.06,.02-.13,.03-.19,.02-.25-.04-.49-.12-.74-.12-.21,0-.42,.1-.64,.15-.06,.01-.13,0-.19-.02-.29-.14-.6-.16-.92-.14-.09,0-.2-.01-.27-.06-.39-.29-.86-.15-1.29-.24-.1-.02-.24,.05-.35,.09-.19,.08-.37,.07-.54-.03-.11-.06-.21-.16-.32-.19-.51-.13-.9-.44-1.27-.82-.44,.09-.88,.08-1.31,0-.19-.04-.38-.09-.5-.25-.18-.23-.4-.4-.69-.46-.22-.05-.4-.19-.55-.36-.18-.19-.36-.36-.6-.45-.3-.11-.45-.34-.55-.61-.1-.26-.19-.54-.25-.81-.24-1.12-.28-2.25-.33-3.39,0-.22,0-.45,.07-.66,.16-.52,.18-1.05,.21-1.59,.01-.29,.08-.56,.2-.82,.1-.2,.2-.39,.22-.62,.02-.23,.13-.42,.26-.6,.18-.27,.3-.55,.28-.89-.02-.29,.08-.54,.21-.81,.21-.42,.32-.89,.62-1.27,.04-.05,.06-.11,.07-.17,.04-.21,.04-.45,.13-.64,.07-.16,.27-.26,.36-.42,.22-.38,.43-.77,.59-1.18,.35-.88,.78-1.72,1.31-2.5,.12-.18,.24-.37,.27-.6,.07-.48,.29-.9,.57-1.28,.22-.29,.21-.67,.43-.94,.2-.25,.42-.46,.52-.78,.14-.4,.39-.73,.73-.97,.47-.34,.69-.81,.84-1.33,.05-.15,.07-.31,.12-.46,.06-.22,.19-.4,.43-.47,.06-.02,.12-.04,.18-.06,.16-.07,.25-.19,.28-.35,.03-.19,.04-.37,.07-.6,.23-.23,.5-.44,.8-.61,.24-.13,.37-.33,.46-.57,.02-.06,.05-.12,.06-.18,.09-.49,.37-.87,.75-1.17,.28-.22,.51-.47,.68-.78,.11-.2,.28-.34,.45-.48,.07-.06,.15-.16,.15-.23-.03-.34,.11-.53,.45-.6,.13-.03,.22-.12,.28-.24,.22-.48,.58-.82,1.05-1.04,.16-.08,.23-.21,.29-.36,.08-.18,.17-.34,.36-.41,.15-.06,.25-.17,.33-.32,.14-.28,.31-.55,.45-.83,.09-.17,.2-.31,.35-.44,.14-.12,.27-.27,.35-.44,.11-.23,.28-.42,.45-.6,.09-.09,.2-.18,.24-.29,.15-.51,.54-.66,1.01-.7,.06,0,.11-.05,.2-.09,.09-.17,.18-.37,.31-.54,.11-.15,.28-.26,.39-.41,.28-.42,.7-.73,.94-1.18,.04-.08,.12-.15,.19-.21,.33-.26,.58-.57,.78-.94,.15-.28,.39-.49,.68-.63,.2-.09,.38-.22,.57-.34,.1-.07,.23-.14,.29-.24,.38-.62,.97-1.07,1.39-1.67,.21-.29,.48-.5,.84-.57,.12-.03,.24-.07,.36-.13,.18-.08,.33-.2,.37-.4,.05-.22,.15-.4,.34-.55,.12-.09,.22-.22,.31-.35,.11-.15,.2-.32,.3-.48,.26-.4,.56-.75,1.07-.88,.28-.07,.52-.23,.66-.5,.1-.18,.26-.27,.45-.32,.31-.09,.59-.24,.82-.46,.21-.2,.43-.22,.7-.17,.21,.04,.25-.02,.29-.27,.01-.09,.01-.17,.02-.26h-.02l.02-.02s0,.01,0,.02c.25-.08,.43-.25,.55-.47,.13-.24,.3-.38,.56-.47,.14-.05,.28-.15,.38-.26,.37-.43,.82-.79,1.14-1.27,.25-.38,.6-.65,1.02-.81,.27-.11,.49-.28,.69-.48,.18-.18,.36-.35,.55-.52,.09-.08,.2-.18,.31-.2,.41-.07,.64-.38,.9-.65,.11-.11,.23-.22,.33-.34,.17-.2,.38-.33,.63-.39,.09-.02,.18-.05,.27-.07,.22-.07,.41-.21,.47-.43,.11-.42,.4-.64,.8-.71,.29-.05,.54-.15,.78-.32,.14-.1,.3-.11,.45-.07,.14,.04,.26,0,.32-.13,.2-.44,.55-.78,.86-1.12,.39-.42,.86-.74,1.48-.73,.2,0,.37-.07,.51-.21,.2-.2,.44-.38,.59-.61,.2-.31,.43-.54,.78-.64,.03,0,.06-.02,.08-.04,.53-.55,1.26-.83,1.81-1.35,.24-.22,.49-.39,.83-.41,.23-.02,.42-.1,.58-.29,.17-.2,.42-.28,.65-.37,.18-.07,.32-.19,.4-.38,.06-.16,.19-.25,.35-.29,.31-.07,.59-.18,.83-.41,.23-.23,.54-.33,.83-.44,.29-.11,.65,.03,.81,.32,.11,.2,.2,.41,.17,.63-.15,1.05,.1,2.08,.11,3.12,0,.12,.02,.25,.03,.38,.01,.19-.02,.37-.12,.54Z"/></svg>